<svg width="60" height="60" viewBox="0 0 60 60" fill="none"
  xmlns="http://www.w3.org/2000/svg">
  <path d="M34.1053 2.99942C33.8688 3.33201 34.2326 3.23962 34.3235 3.27658C37.1789 4.40365 39.8343 5.91874 42.235 7.8588C44.9449 10.039 47.1092 12.6812 48.8915 15.6744C50.8376 18.9818 52.038 22.5662 52.5472 26.354C52.8382 28.5712 52.8564 30.7884 52.6381 33.0425C52.2926 36.664 51.3287 40.0822 49.6918 43.2971C47.1092 48.3413 43.399 52.2953 38.5066 55.1222C37.088 55.9537 35.5784 56.5634 34.0689 57.2101C34.0507 57.2101 34.0143 57.2655 34.0143 57.2655C34.0325 57.3209 34.0689 57.3579 34.1053 57.4133C33.596 57.635 33.0504 57.5981 32.5048 57.6166C32.232 57.5057 31.941 57.3764 31.6682 57.2655C27.6124 55.8243 24.0477 53.5517 21.0104 50.4845C18.4278 47.8609 16.409 44.8122 14.9722 41.394C12.8988 36.4977 12.3168 31.3981 12.9898 26.1692C13.4626 22.5293 14.6812 19.0926 16.5181 15.8962C18.5187 12.4041 21.1013 9.44779 24.3023 7.04582C26.8121 5.17967 29.5948 3.86783 32.5048 2.7777C33.0504 2.81466 33.596 2.7777 34.1053 2.99942ZM30.104 39.0844C29.322 39.0844 28.5399 39.0659 27.7397 39.0844C27.1213 39.1029 26.8849 39.3801 27.0668 40.0452C27.4487 41.3755 28.6127 42.2624 30.0495 42.2624C31.4681 42.2624 32.6685 41.3571 33.0322 40.0452C33.2141 39.417 33.014 39.0844 32.3593 39.0844C31.6136 39.0659 30.8497 39.0844 30.104 39.0844ZM24.1386 38.4377C25.1935 38.4193 25.9573 37.6248 25.9392 36.5531C25.921 35.4815 25.1389 34.7239 24.0659 34.7424C23.0474 34.7609 22.2108 35.6108 22.2471 36.627C22.2653 37.6432 23.1201 38.4562 24.1386 38.4377ZM37.8882 36.5346C37.87 35.4445 37.1244 34.7054 36.0331 34.7239C34.9783 34.7424 34.2144 35.5554 34.2326 36.6085C34.2508 37.6617 35.051 38.4377 36.1059 38.4193C37.1971 38.4008 37.9064 37.6617 37.8882 36.5346Z" fill="#FBE3EB"/>
  <path d="M32.5047 57.6165C33.0503 57.5796 33.596 57.635 34.1052 57.4133C38.8339 56.7851 43.0716 54.9189 46.7636 51.8887C54.2022 45.773 57.6578 37.791 57.0758 28.0907C56.7848 23.1759 55.1298 18.6861 52.4017 14.6212C52.2925 14.4734 52.1834 14.3256 52.0925 14.1778C51.6742 13.5681 51.5832 12.9768 52.2016 12.4595C52.729 12.016 53.3838 12.1823 53.893 12.9029C56.712 16.8939 58.5126 21.3283 59.0946 26.2061C60.2404 35.9434 57.5123 44.4242 50.692 51.3714C35.1237 67.2244 8.26101 60.2772 1.95001 38.8257C1.71357 38.0312 1.69539 37.3845 2.47744 36.9226C3.36862 36.7933 3.80511 37.2367 4.04155 38.0682C4.56898 39.9713 5.29648 41.782 6.2604 43.5003C9.78875 49.7639 14.8266 54.1429 21.6105 56.3971C21.7378 56.434 21.8651 56.4894 22.0106 56.5264C22.4289 56.6557 22.8654 56.822 23.2837 56.9329C26.321 57.6904 29.3947 58.0045 32.5047 57.6165Z" fill="#050404"/>
  <path d="M34.1052 2.99939C33.596 2.77767 33.0503 2.81463 32.5047 2.79615C28.9218 2.38966 25.4298 2.77767 22.0106 3.90475C21.8833 3.9417 21.756 3.99713 21.6105 4.03409C21.3559 4.10799 21.0831 4.1819 20.8285 4.27428C12.1349 7.67399 6.46046 13.9006 3.85967 22.9912C3.62324 23.8041 3.27768 24.3215 2.3865 24.303C1.45894 23.8596 1.49532 23.1205 1.74994 22.2706C4.27798 13.5681 9.49774 7.11969 17.5729 3.25807C28.6126 -2.04474 41.3438 0.117029 50.2555 8.61631C50.9285 9.24451 51.0376 9.94663 50.5829 10.464C50.0919 10.9998 49.4189 10.9074 48.6914 10.2053C44.8175 6.47301 40.2343 4.14495 35.0146 3.09178C34.7236 3.03635 34.4144 3.03635 34.1052 2.99939Z" fill="#050404"/>
  <path d="M2.38654 24.303C3.27772 24.34 3.62328 23.8042 3.85971 22.9912C6.47869 13.9191 12.1531 7.67399 20.8285 4.27428C21.0831 4.1819 21.3377 4.10799 21.6105 4.03408C21.556 4.51448 21.1013 4.51448 20.8103 4.68077C18.3368 6.01109 16.0634 7.61857 14.0628 9.59557C11.4256 12.2193 9.3341 15.231 7.86092 18.6861C5.84213 23.3792 5.11464 28.2386 5.64207 33.3197C6.06038 37.2552 7.24255 40.9136 9.17041 44.3502C11.7166 48.914 15.245 52.48 19.7191 55.1037C20.3738 55.4917 21.2104 55.621 21.6287 56.3786C14.8449 54.1429 9.78878 49.7454 6.27863 43.4818C5.3147 41.7635 4.56902 39.9528 4.05977 38.0497C3.82334 37.2182 3.38684 36.7748 2.49566 36.9041C2.40472 35.7216 1.98642 34.5761 2.02279 33.3751C2.71391 33.1534 3.00491 32.7099 2.98672 31.9339C2.93216 30.7699 2.93216 29.6243 2.98672 28.4603C3.02309 27.7027 2.7321 27.2408 2.02279 27.0191C1.98642 26.0953 2.18648 25.1899 2.38654 24.303Z" fill="#F18DAF"/>
  <path d="M1.9864 27.0376C2.6957 27.2593 2.96851 27.7212 2.95032 28.4787C2.89576 29.6428 2.89576 30.7883 2.95032 31.9524C2.9867 32.7099 2.6957 33.1718 1.9864 33.3935C1.09522 33.3196 0.731471 32.8023 0.731471 31.9154C0.749658 30.7883 0.749658 29.6428 0.731471 28.5157C0.731471 27.6288 1.09522 27.093 1.9864 27.0376Z" fill="#050404"/>
  <path d="M21.6105 56.3786C21.1922 55.6396 20.3556 55.4918 19.7008 55.1037C15.2268 52.4616 11.6984 48.9141 9.15219 44.3503C7.24252 40.9136 6.04216 37.2737 5.62385 33.3197C5.09641 28.2386 5.82391 23.3793 7.8427 18.6862C9.33406 15.231 11.4074 12.2193 14.0446 9.59564C16.0452 7.61863 18.3186 5.99268 20.7921 4.68084C21.0831 4.51455 21.5378 4.51455 21.5923 4.03415C21.7742 4.14501 21.9197 4.14502 21.9924 3.90482C25.4117 2.77774 28.9218 2.40821 32.4865 2.79622C29.5766 3.86786 26.7939 5.17971 24.2841 7.06433C21.0831 9.46631 18.5005 12.4226 16.4999 15.9147C14.663 19.1111 13.4444 22.5293 12.9715 26.1877C12.2986 31.4166 12.8806 36.5162 14.9539 41.4125C16.4089 44.8492 18.4095 47.8794 20.9921 50.5031C24.0294 53.5887 27.5941 55.8613 31.6499 57.284C31.9409 57.3764 32.2137 57.5057 32.4865 57.6351C29.3765 58.0046 26.3028 57.6905 23.2656 56.9329C22.8291 56.8221 22.4108 56.6743 21.9924 56.5265C21.9379 56.2678 21.7924 56.2678 21.6105 56.3786ZM7.66083 29.6429C7.60627 32.7839 8.04276 35.5739 8.89757 38.3084C9.134 39.0475 9.58869 39.3801 10.3344 39.2138C10.9164 39.0844 11.1892 38.3823 10.9709 37.6433C10.1889 35.0196 9.82512 32.322 9.82512 29.5874C9.82512 28.2017 10.0797 26.8529 10.1889 25.4856C10.2434 24.7835 10.0252 24.2292 9.29769 24.1368C8.55201 24.0444 8.1337 24.4879 8.00639 25.2454C7.76995 26.7974 7.58808 28.331 7.66083 29.6429ZM15.4996 13.0323C15.4996 12.515 15.3177 12.1269 14.863 11.9791C14.372 11.8128 13.8991 11.8683 13.5535 12.3302C12.626 13.5497 11.8621 14.8615 11.1164 16.2103C10.7345 16.9309 10.9891 17.4852 11.6439 17.8178C12.2804 18.1319 12.7169 17.8547 13.0625 17.2635C13.7172 16.1179 14.3538 14.9724 15.1358 13.9192C15.3359 13.642 15.5541 13.3649 15.4996 13.0323ZM10.007 23.0097C10.4435 23.0652 10.7891 22.825 10.9709 22.3446C11.1528 21.8826 11.3165 21.4392 11.4438 20.9588C11.6075 20.3121 11.3892 19.7763 10.7709 19.5361C10.1525 19.3144 9.62506 19.5731 9.35225 20.1828C9.15219 20.6632 9.00669 21.1621 8.87938 21.6609C8.67932 22.4185 9.15219 23.0097 10.007 23.0097Z" fill="#F7BACF"/>
  <path d="M30.104 39.0844C30.8679 39.0844 31.6136 39.0844 32.3774 39.0844C33.0322 39.0844 33.2322 39.417 33.0504 40.0452C32.6866 41.357 31.4863 42.2624 30.0677 42.2624C28.649 42.2624 27.485 41.3755 27.0849 40.0452C26.8849 39.38 27.1213 39.1029 27.7579 39.0844C28.5217 39.0659 29.3038 39.0844 30.104 39.0844ZM29.9767 40.1745C29.4129 40.2299 28.6309 40.2115 28.5945 40.9875C28.5763 41.782 29.3765 41.8005 29.9585 41.819C30.5951 41.8374 31.4317 41.8374 31.4499 41.0245C31.4863 40.1745 30.6496 40.2115 29.9767 40.1745Z" fill="#050404"/>
  <path d="M24.1386 38.4377C23.1019 38.4561 22.2653 37.6617 22.2289 36.627C22.2107 35.6107 23.0292 34.7608 24.0477 34.7423C25.1207 34.7239 25.9028 35.4814 25.921 36.5531C25.9755 37.6062 25.2116 38.4192 24.1386 38.4377Z" fill="#050404"/>
  <path d="M37.8882 36.5346C37.9063 37.6432 37.197 38.4008 36.124 38.4192C35.0691 38.4377 34.2689 37.6617 34.2507 36.6085C34.2325 35.5369 34.9964 34.7239 36.0512 34.7239C37.1243 34.7239 37.87 35.4445 37.8882 36.5346Z" fill="#050404"/>
  <path d="M21.6106 56.3786C21.7924 56.2677 21.9379 56.2677 22.0107 56.5079C21.8834 56.471 21.7561 56.434 21.6106 56.3786Z" fill="#F18DAF"/>
  <path d="M22.0107 3.90472C21.9379 4.14491 21.7924 4.14491 21.6106 4.03405C21.7561 3.9971 21.8834 3.94167 22.0107 3.90472Z" fill="#F18DAF"/>
  <path d="M29.9767 40.1745C30.6496 40.2115 31.4862 40.193 31.468 41.006C31.4498 41.8189 30.6132 41.8189 29.9767 41.8005C29.3765 41.782 28.5762 41.7635 28.6126 40.969C28.6126 40.2115 29.4128 40.2299 29.9767 40.1745Z" fill="#F7BACF"/>
</svg>
