<svg width="150" height="28" viewBox="0 0 150 28" fill="none"
  xmlns="http://www.w3.org/2000/svg">
  <g clip-path="url(#clip0)">
    <path d="M9.62838 0.268036C12.2955 0.268036 14.2692 1.09894 16.0829 2.76074C16.3229 2.97516 16.3229 3.2968 16.1095 3.51123L14.0292 5.68229C13.8425 5.86992 13.5491 5.86992 13.3624 5.68229C12.3755 4.79779 11.0686 4.31533 9.76174 4.31533C6.74787 4.31533 4.53414 6.83483 4.53414 9.8368C4.53414 12.812 6.77454 15.2779 9.78841 15.2779C11.042 15.2779 12.4022 14.8222 13.3624 13.9913C13.5491 13.8305 13.8958 13.8305 14.0558 14.0181L16.1362 16.2428C16.3229 16.4304 16.2962 16.7788 16.1095 16.9665C14.2959 18.7355 12.0021 19.5664 9.62838 19.5664C4.2941 19.5664 0 15.3047 0 9.94401C0 4.58336 4.2941 0.268036 9.62838 0.268036Z" fill="white"/>
    <path d="M18.1099 1.04533C18.1099 0.777301 18.3499 0.536072 18.6166 0.536072H21.5771C21.8439 0.536072 22.0839 0.777301 22.0839 1.04533V8.92549C22.884 8.52344 23.7642 8.30902 24.5643 8.30902C27.9249 8.30902 29.6586 10.9625 29.6586 13.9377V18.7891C29.6586 19.0571 29.4185 19.2984 29.1518 19.2984H26.3247C26.0313 19.2984 25.8179 19.0571 25.8179 18.7891V13.8841C25.8179 12.7047 25.0444 11.7666 23.8709 11.7666C23.0174 11.7666 22.0839 12.2491 22.0839 13.8841V18.7891C22.0839 19.1375 21.9505 19.2984 21.4971 19.2984H18.6166C18.3499 19.2984 18.1099 19.0571 18.1099 18.7891V1.04533Z" fill="white"/>
    <path d="M36.9665 8.30899C39.687 8.30899 42.0341 10.3996 42.0341 13.348C42.0341 13.5356 42.0074 13.8841 41.9808 14.0717C41.9541 14.3397 41.714 14.5273 41.474 14.5273H35.0729C35.1529 15.251 35.7397 16.2964 37.1266 16.2964C37.7933 16.2964 38.5668 15.9747 38.9936 15.6531C39.2336 15.4655 39.5003 15.4655 39.6603 15.6531L40.9939 17.2613C41.1539 17.4757 41.2073 17.7973 40.9672 18.0386C40.0337 18.9767 38.7002 19.5664 37.0199 19.5664C33.846 19.5664 31.4456 17.0201 31.4456 13.9377C31.4456 10.9089 33.8193 8.30899 36.9665 8.30899ZM38.2734 12.4367C38.2201 11.7398 37.5533 11.1769 36.8598 11.1769C36.1397 11.1769 35.5263 11.7398 35.4196 12.4367H38.2734Z" fill="white"/>
    <path d="M42.7809 9.2471C42.6476 8.89866 42.8876 8.57702 43.261 8.57702H45.7948C45.9548 8.57702 46.2215 8.71104 46.2749 8.89866L47.6618 12.5707H47.6885L50.2223 8.52342C50.2756 8.44301 50.409 8.30899 50.649 8.30899H50.9157C51.1024 8.30899 51.2624 8.4162 51.3158 8.52342L53.8762 12.5707H53.9029L55.2632 8.89866C55.3698 8.65743 55.5032 8.57702 55.7966 8.57702H58.277C58.6504 8.57702 58.8905 8.89866 58.7571 9.2471L55.2098 19.2447C55.1565 19.4323 54.9164 19.5664 54.7297 19.5664H54.623C54.4897 19.5664 54.2496 19.4591 54.1963 19.3519L50.7557 13.9913H50.729L47.3417 19.3519C47.2617 19.4591 47.0484 19.5664 46.915 19.5664H46.7816C46.6216 19.5664 46.3549 19.4323 46.3282 19.2447L42.7809 9.2471Z" fill="white"/>
    <path d="M60.4641 9.08629C60.4641 8.79145 60.7042 8.57703 60.9709 8.57703H63.9047C64.1714 8.57703 64.4114 8.79145 64.4114 9.08629V18.7891C64.4114 19.0571 64.1714 19.2983 63.9047 19.2983H60.9709C60.7042 19.2983 60.4641 19.0571 60.4641 18.7891V9.08629Z" fill="white"/>
    <path d="M67.292 9.08629C67.292 8.79145 67.532 8.57702 67.7987 8.57702H69.0523C69.2123 8.57702 69.4524 8.71104 69.5324 8.89866L69.9591 9.97079C70.5459 9.32751 71.7728 8.30899 73.7198 8.30899C77.027 8.30899 78.7873 10.8553 78.7873 13.9109V18.7891C78.7873 19.0571 78.5473 19.2983 78.2805 19.2983H75.4267C75.1333 19.2983 74.92 19.0571 74.92 18.7891V13.7769C74.92 12.7047 74.3065 11.7666 73.1063 11.7666C72.0395 11.7666 71.0793 12.5439 71.0793 13.6428V18.7891C71.0793 19.0303 70.9726 19.2983 70.5992 19.2983H67.7987C67.532 19.2983 67.292 19.0571 67.292 18.7891V9.08629Z" fill="white"/>
    <path d="M82.3613 15.3851C82.3613 15.3851 81.5878 14.581 81.5878 12.946C81.5878 10.4533 83.6948 8.30899 86.282 8.30899H91.3229C91.6163 8.30899 91.8296 8.52342 91.8296 8.81825V9.91719C91.8296 10.1048 91.6963 10.2924 91.5363 10.3728L89.9893 10.9357C89.9893 10.9357 91.0028 11.7666 91.0028 13.5356C91.0028 15.4923 89.2158 17.5829 86.3887 17.5829H84.4683C83.9082 17.5829 83.5881 17.8778 83.5881 18.3066C83.5881 18.8159 84.0416 19.0303 84.4416 19.0303H87.6422C90.1493 19.0303 92.2297 20.5581 92.2297 22.9436C92.2297 25.5167 90.4427 27.6073 86.2286 27.6073C82.0945 27.6073 80.6543 25.6507 80.6543 23.9621C80.6543 22.3539 81.9879 21.5498 82.2812 21.389V21.3086C81.9345 21.2014 80.2275 20.4509 80.2275 18.3334C80.2275 16.216 82.3613 15.3851 82.3613 15.3851ZM86.2286 24.4714C87.5622 24.4714 88.149 23.9353 88.149 23.2116C88.149 22.6487 87.6689 22.0859 86.2286 22.0859C85.2685 22.0859 84.3083 22.4343 84.3083 23.2116C84.3083 23.9621 84.9484 24.4714 86.2286 24.4714ZM86.3887 14.581C87.2155 14.581 87.8023 13.9913 87.8023 13.1872C87.8023 12.3831 87.2155 11.7934 86.3887 11.7934C85.5885 11.7934 84.9751 12.3831 84.9751 13.1872C84.9751 13.9913 85.5885 14.581 86.3887 14.581Z" fill="white"/>
    <path d="M108.766 0.294861C111.006 0.294861 113.46 1.23297 115.274 2.81437C115.514 3.00199 115.54 3.32363 115.327 3.53805L113.22 5.78953C113.007 5.97715 112.713 5.97715 112.5 5.81633C111.486 4.87822 110.313 4.52978 109.006 4.52978C106.099 4.52978 103.752 6.99567 103.752 9.94403C103.752 12.8656 106.125 15.2779 109.033 15.2779C109.806 15.2779 110.606 15.1707 111.406 14.849V13.2944H109.726C109.433 13.2944 109.219 13.08 109.219 12.812V10.1585C109.219 9.86362 109.433 9.6492 109.726 9.6492H115.087C115.354 9.6492 115.567 9.89043 115.567 10.1585L115.594 17.3685C115.594 17.5026 115.487 17.717 115.38 17.7974C115.38 17.7974 112.633 19.5396 108.766 19.5396C103.458 19.5396 99.1909 15.3047 99.1909 9.94403C99.1909 4.58338 103.458 0.294861 108.766 0.294861Z" fill="white"/>
    <path d="M117.808 9.08629C117.808 8.79145 118.048 8.57703 118.314 8.57703H121.168C121.435 8.57703 121.675 8.79145 121.675 9.08629V14.0449C121.675 15.1438 122.288 16.1087 123.382 16.1087C124.422 16.1087 124.982 15.117 124.982 14.2057V9.08629C124.982 8.65744 125.276 8.57703 125.542 8.57703H128.263C128.53 8.57703 128.77 8.79145 128.77 9.08629V18.7891C128.77 19.0571 128.53 19.2983 128.263 19.2983H127.009C126.769 19.2983 126.583 19.1107 126.502 18.9231L126.102 17.9314C125.409 18.6014 124.555 19.5664 122.502 19.5664C119.328 19.5664 117.808 16.9932 117.808 13.9377V9.08629Z" fill="white"/>
    <path d="M131.65 9.08629C131.65 8.79145 131.863 8.57702 132.157 8.57702H133.384C133.57 8.57702 133.757 8.71104 133.837 8.87186L134.291 9.97079C134.957 9.27391 136.184 8.30899 137.891 8.30899C139.385 8.30899 140.425 8.87186 141.385 9.94399C141.999 9.32751 143.252 8.30899 145.066 8.30899C148.373 8.30899 150 10.8821 150 13.9377V18.7891C150 19.0571 149.787 19.2983 149.493 19.2983H146.666C146.373 19.2983 146.159 19.0571 146.159 18.7891V13.7769C146.159 12.7047 145.599 11.7666 144.372 11.7666C143.439 11.7666 142.585 12.5439 142.585 13.5892V18.7891C142.585 19.0571 142.372 19.2983 142.079 19.2983H139.518C139.225 19.2983 139.011 19.0571 139.011 18.7891V13.7769C139.011 12.7047 138.531 11.7666 137.331 11.7666C136.264 11.7666 135.464 12.5439 135.464 13.6428V18.7891C135.464 19.0571 135.224 19.2983 134.957 19.2983H132.157C131.863 19.2983 131.65 19.0571 131.65 18.7891V9.08629Z" fill="white"/>
    <path d="M59.584 6.03073C59.8507 5.81631 60.0374 5.60188 60.0907 5.28024C60.1441 5.01221 60.1174 4.77098 59.9574 4.52975C59.3439 3.48442 59.4239 2.14426 60.1707 1.17934C60.9175 0.214428 62.1711 -0.214425 63.3713 0.107215C64.5182 0.428854 65.425 1.44738 65.5584 2.65352C65.7184 4.0741 64.8649 5.44106 63.5047 5.89672C62.3578 6.27196 60.9709 6.32557 59.584 6.03073ZM64.5448 3.96688C64.8382 3.37721 64.8649 2.4391 64.3848 2.03705C64.1981 1.87623 63.8514 1.74221 63.558 1.87623C63.2113 2.06385 63.1846 2.54631 63.1846 2.57311C63.1846 2.89475 63.3446 2.94836 63.398 3.2968C63.4513 3.72565 63.2646 4.0741 63.1313 4.36893C62.9179 4.79778 62.6778 4.98541 62.7579 5.06582C62.8379 5.19983 63.3713 4.9586 63.4246 4.9318C63.6914 4.85139 64.2515 4.58336 64.5448 3.96688Z" fill="white"/>
  </g>
  <defs>
    <clipPath id="clip0">
      <rect width="150" height="27.6074" fill="white"/>
    </clipPath>
  </defs>
</svg>
