<svg width="49" height="37" viewBox="0 0 49 37" fill="none"
  xmlns="http://www.w3.org/2000/svg">
  <g clip-path="url(#clip0)">
      <path d="M46.8909 7.51242C46.8686 7.67194 46.7572 7.7479 46.6161 7.78588C46.4082 7.83905 46.2671 7.96059 46.2225 8.18847C46.1928 8.33279 46.1111 8.44673 45.9477 8.45433C45.7695 8.46192 45.6729 8.34039 45.6432 8.18087C45.5987 7.95299 45.4501 7.84665 45.2496 7.78588C45.1085 7.7479 44.9897 7.66434 44.9897 7.50483C44.9897 7.32252 45.1085 7.23137 45.2645 7.19339C45.4873 7.14022 45.6061 7.01869 45.6507 6.79081C45.6804 6.64648 45.762 6.52495 45.918 6.51735C46.074 6.50975 46.1779 6.6161 46.2076 6.76042C46.2596 7.01868 46.4082 7.14782 46.6458 7.20858C46.8018 7.24656 46.8835 7.35291 46.8909 7.51242Z" fill="#F18DAF"/>
      <path d="M43.2667 12.2599C43.2667 11.8117 43.6009 11.4775 44.0391 11.4851C44.4847 11.4927 44.8115 11.8193 44.8115 12.2675C44.8189 12.7005 44.4698 13.0651 44.0465 13.0727C43.6009 13.0879 43.2667 12.7384 43.2667 12.2599ZM44.3733 12.2675C44.3213 12.0776 44.2322 11.9257 44.0168 11.9485C43.8163 11.9713 43.7123 12.1004 43.7198 12.3131C43.7346 12.5182 43.8757 12.6093 44.0465 12.6093C44.2322 12.6017 44.3436 12.4574 44.3733 12.2675Z" fill="#F18DAF"/>
      <path d="M43.6455 6.94271C43.4673 6.70724 43.1925 6.50215 43.1925 6.28946C43.1925 6.09956 43.4895 5.77293 43.6752 5.76534C43.846 5.75774 44.1876 6.06158 44.1876 6.24388C44.1951 6.43378 43.898 6.63887 43.6455 6.94271Z" fill="#F18DAF"/>
      <path d="M44.3733 12.2675C44.3436 12.4574 44.2396 12.6093 44.0465 12.6093C43.8757 12.6169 43.7346 12.5182 43.7198 12.3131C43.7049 12.1004 43.8163 11.9789 44.0168 11.9485C44.2322 11.9257 44.3139 12.0776 44.3733 12.2675Z" fill="#FEFEFE"/>
      <path d="M1.24024 26.6847C1.38877 26.7075 1.47788 26.7986 1.50759 26.9278C1.55958 27.1784 1.70068 27.3228 1.94575 27.3759C2.072 27.4063 2.17597 27.4747 2.19083 27.6266C2.20568 27.7861 2.10914 27.9 1.96803 27.938C1.72296 28.0064 1.55958 28.1355 1.50759 28.409C1.48531 28.5381 1.38134 28.6217 1.23281 28.6217C1.08428 28.6217 0.987736 28.5381 0.95803 28.409C0.906044 28.1355 0.742662 27.9988 0.497587 27.938C0.371337 27.9 0.282219 27.8089 0.274793 27.6646C0.267366 27.5127 0.356484 27.4215 0.482734 27.3911C0.757515 27.3304 0.913471 27.1708 0.972883 26.8974C1.00259 26.7607 1.11399 26.6923 1.24024 26.6847Z" fill="#F18DAF"/>
      <path d="M3.68352 20.9573C3.68352 21.3978 3.3419 21.7549 2.91859 21.77C2.51756 21.7776 2.13881 21.3903 2.13139 20.9725C2.12396 20.5395 2.51756 20.1293 2.92602 20.1445C3.35676 20.1597 3.68352 20.5091 3.68352 20.9573ZM2.94087 21.2687C3.11168 21.2535 3.23793 21.1548 3.23051 20.9421C3.22308 20.7522 3.10426 20.6458 2.91859 20.6458C2.70323 20.6382 2.59183 20.775 2.59926 20.9725C2.60668 21.1396 2.71065 21.2687 2.94087 21.2687Z" fill="#F18DAF"/>
      <path d="M2.10911 25.2035C1.77492 25.1959 1.52984 24.93 1.53727 24.5882C1.54469 24.2312 1.81205 23.9729 2.16109 23.9957C2.49529 24.0109 2.73293 24.2844 2.71808 24.6262C2.70323 24.968 2.4433 25.2111 2.10911 25.2035Z" fill="#F7BACF"/>
      <path d="M0.534729 22.7044C0.475317 22.6968 -0.00740464 22.2106 2.18509e-05 22.1574C0.00744834 22.1043 0.534729 21.6181 0.564435 21.6485C0.742671 21.8156 0.91348 21.9979 1.07686 22.1726C1.09914 22.1954 0.579288 22.7044 0.534729 22.7044Z" fill="#F18DAF"/>
      <path d="M2.94088 21.2688C2.71066 21.2688 2.59926 21.1396 2.59926 20.9649C2.59183 20.775 2.70323 20.6307 2.9186 20.6383C3.10426 20.6459 3.22308 20.7446 3.23051 20.9345C3.23794 21.1548 3.11169 21.2536 2.94088 21.2688Z" fill="#FEFEFE"/>
      <path d="M19.2346 13.5664C19.1381 13.7031 19.2866 13.6651 19.3238 13.6803C20.4897 14.1437 21.574 14.7665 22.5543 15.5641C23.6608 16.4604 24.5446 17.5467 25.2724 18.7772C26.067 20.1369 26.5572 21.6105 26.7651 23.1677C26.8839 24.0792 26.8914 24.9907 26.8022 25.9174C26.6611 27.4062 26.2675 28.8115 25.5992 30.1332C24.5446 32.2069 23.0296 33.8324 21.0319 34.9946C20.4526 35.3364 19.8362 35.5871 19.2198 35.853C19.2124 35.853 19.1975 35.8758 19.1975 35.8758C19.2049 35.8985 19.2198 35.9137 19.2346 35.9365C19.0267 36.0277 18.8039 36.0125 18.5811 36.0201C18.4697 35.9745 18.3509 35.9213 18.2395 35.8758C16.5834 35.2833 15.1278 34.349 13.8876 33.088C12.833 32.0094 12.0087 30.7561 11.422 29.3508C10.5754 27.3379 10.3377 25.2414 10.6125 23.0917C10.8056 21.5953 11.3032 20.1825 12.0532 18.8684C12.8701 17.4327 13.9247 16.2174 15.2318 15.2299C16.2566 14.4627 17.3929 13.9234 18.5811 13.4752C18.8039 13.4904 19.0267 13.4752 19.2346 13.5664ZM17.6008 28.4013C17.2815 28.4013 16.9621 28.3937 16.6354 28.4013C16.3829 28.4089 16.2863 28.5229 16.3606 28.7963C16.5166 29.3432 16.9918 29.7078 17.5785 29.7078C18.1578 29.7078 18.648 29.3356 18.7965 28.7963C18.8708 28.538 18.7891 28.4013 18.5217 28.4013C18.2172 28.3937 17.9053 28.4013 17.6008 28.4013ZM15.1649 28.1355C15.5957 28.1279 15.9076 27.8012 15.9002 27.3607C15.8927 26.9201 15.5734 26.6087 15.1352 26.6163C14.7193 26.6239 14.3777 26.9733 14.3926 27.3911C14.4 27.8088 14.749 28.1431 15.1649 28.1355ZM20.7794 27.3531C20.7719 26.9049 20.4674 26.6011 20.0219 26.6087C19.5911 26.6163 19.2792 26.9505 19.2866 27.3835C19.2941 27.8164 19.6208 28.1355 20.0516 28.1279C20.4972 28.1203 20.7868 27.8164 20.7794 27.3531Z" fill="#FBE3EB"/>
      <path d="M18.5811 36.0201C18.8039 36.0049 19.0267 36.0277 19.2346 35.9366C21.1655 35.6783 22.8959 34.9111 24.4035 33.6654C27.4409 31.1511 28.8519 27.8696 28.6143 23.8817C28.4955 21.8612 27.8197 20.0154 26.7057 18.3443C26.6611 18.2835 26.6166 18.2227 26.5794 18.162C26.4086 17.9113 26.3715 17.6682 26.624 17.4555C26.8394 17.2732 27.1067 17.3416 27.3146 17.6378C28.4658 19.2786 29.201 21.1016 29.4386 23.107C29.9065 27.11 28.7925 30.5966 26.0076 33.4527C19.6505 39.97 8.68158 37.1139 6.10459 28.295C6.00804 27.9684 6.00062 27.7025 6.31996 27.5126C6.68385 27.4594 6.86209 27.6417 6.95863 27.9836C7.174 28.766 7.47106 29.5104 7.86467 30.2168C9.30541 32.7918 11.3625 34.5921 14.1326 35.5188C14.1846 35.534 14.2366 35.5568 14.296 35.572C14.4668 35.6251 14.6451 35.6935 14.8159 35.7391C16.0561 36.0505 17.3112 36.1796 18.5811 36.0201Z" fill="#050404"/>
      <path d="M19.2346 13.5664C19.0267 13.4752 18.8039 13.4904 18.5811 13.4828C17.1181 13.3157 15.6922 13.4752 14.296 13.9386C14.244 13.9538 14.192 13.9766 14.1326 13.9918C14.0287 14.0221 13.9173 14.0525 13.8133 14.0905C10.2634 15.4882 7.94636 18.048 6.88437 21.7852C6.78782 22.1195 6.64672 22.3321 6.28282 22.3245C5.90407 22.1422 5.91892 21.8384 6.0229 21.489C7.05518 17.9113 9.18658 15.2603 12.4839 13.6727C16.9918 11.4927 22.1904 12.3814 25.8294 15.8756C26.1041 16.1338 26.1487 16.4225 25.963 16.6352C25.7625 16.8554 25.4877 16.8175 25.1907 16.5288C23.6088 14.9944 21.7374 14.0373 19.606 13.6044C19.4871 13.5816 19.3609 13.5816 19.2346 13.5664Z" fill="#050404"/>
      <path d="M6.28284 22.3245C6.64674 22.3397 6.78784 22.1195 6.88438 21.7852C7.9538 18.0556 10.2709 15.4882 13.8133 14.0905C13.9173 14.0525 14.0212 14.0221 14.1326 13.9918C14.1104 14.1893 13.9247 14.1893 13.8059 14.2576C12.7959 14.8045 11.8676 15.4654 11.0506 16.2781C9.9738 17.3568 9.11976 18.5949 8.51821 20.0154C7.69387 21.9447 7.39681 23.9425 7.61218 26.0314C7.78299 27.6493 8.26571 29.1533 9.05292 30.5662C10.0926 32.4424 11.5334 33.9084 13.3603 34.987C13.6276 35.1466 13.9693 35.1997 14.1401 35.5112C11.37 34.592 9.30542 32.7842 7.87211 30.2092C7.4785 29.5027 7.17402 28.7583 6.96608 27.976C6.86953 27.6341 6.69129 27.4518 6.3274 27.505C6.29026 27.0189 6.11945 26.5479 6.13431 26.0542C6.41651 25.963 6.53534 25.7807 6.52791 25.4617C6.50563 24.9831 6.50563 24.5122 6.52791 24.0336C6.54277 23.7222 6.42394 23.5323 6.13431 23.4412C6.11945 23.0614 6.20115 22.6892 6.28284 22.3245Z" fill="#F18DAF"/>
      <path d="M6.11945 23.4487C6.40908 23.5399 6.52048 23.7298 6.51305 24.0412C6.49077 24.5198 6.49077 24.9907 6.51305 25.4693C6.5279 25.7807 6.40908 25.9706 6.11945 26.0617C5.75555 26.0314 5.60702 25.8187 5.60702 25.4541C5.61444 24.9907 5.61444 24.5198 5.60702 24.0564C5.60702 23.6918 5.75555 23.4715 6.11945 23.4487Z" fill="#050404"/>
      <path d="M14.1326 35.5112C13.9618 35.2073 13.6202 35.1466 13.3528 34.9871C11.5259 33.9008 10.0852 32.4424 9.04548 30.5662C8.2657 29.1533 7.77555 27.6569 7.60474 26.0314C7.38937 23.9425 7.68643 21.9448 8.51077 20.0154C9.11974 18.5949 9.96636 17.3568 11.0432 16.2782C11.8601 15.4654 12.7884 14.797 13.7984 14.2576C13.9173 14.1893 14.1029 14.1893 14.1252 13.9918C14.1995 14.0374 14.2589 14.0374 14.2886 13.9386C15.6848 13.4753 17.1181 13.3233 18.5737 13.4828C17.3854 13.9234 16.2492 14.4627 15.2243 15.2375C13.9173 16.225 12.8627 17.4404 12.0458 18.876C11.2957 20.1901 10.7981 21.5954 10.605 23.0994C10.3303 25.249 10.5679 27.3455 11.4145 29.3584C12.0086 30.7713 12.8256 32.017 13.8801 33.0957C15.1204 34.3642 16.5759 35.2985 18.2321 35.8834C18.3509 35.9214 18.4623 35.9745 18.5737 36.0277C17.3037 36.1796 16.0487 36.0505 14.8084 35.7391C14.6302 35.6935 14.4594 35.6327 14.2886 35.5719C14.2663 35.4656 14.2069 35.4656 14.1326 35.5112ZM8.43651 24.5198C8.41423 25.8111 8.59246 26.9581 8.94151 28.0823C9.03805 28.3862 9.22371 28.5229 9.5282 28.4545C9.76585 28.4013 9.87725 28.1127 9.78813 27.8089C9.46879 26.7302 9.32026 25.6212 9.32026 24.497C9.32026 23.9273 9.42423 23.3728 9.46879 22.8107C9.49107 22.5221 9.40195 22.2942 9.10489 22.2562C8.8004 22.2182 8.62959 22.4005 8.57761 22.712C8.48106 23.35 8.4068 23.9805 8.43651 24.5198ZM11.6373 17.691C11.6373 17.4783 11.5631 17.3188 11.3774 17.258C11.1769 17.1897 10.9838 17.2125 10.8427 17.4024C10.4639 17.9037 10.152 18.443 9.84754 18.9975C9.69158 19.2938 9.79555 19.5216 10.0629 19.6584C10.3228 19.7875 10.5011 19.6736 10.6422 19.4305C10.9095 18.9595 11.1695 18.4886 11.4888 18.0556C11.5705 17.9417 11.6596 17.8277 11.6373 17.691ZM9.39452 21.7928C9.57276 21.8156 9.71386 21.7169 9.78813 21.5194C9.86239 21.3295 9.92923 21.1472 9.98122 20.9497C10.0481 20.6838 9.95894 20.4636 9.70644 20.3648C9.45393 20.2737 9.23857 20.38 9.12717 20.6307C9.04548 20.8282 8.98607 21.0332 8.93408 21.2383C8.85239 21.5498 9.04548 21.7928 9.39452 21.7928Z" fill="#F7BACF"/>
      <path d="M17.6008 28.4013C17.9127 28.4013 18.2172 28.4013 18.5291 28.4013C18.7965 28.4013 18.8782 28.5381 18.8039 28.7963C18.6554 29.3356 18.1652 29.7078 17.586 29.7078C17.0067 29.7078 16.5314 29.3432 16.368 28.7963C16.2863 28.5229 16.3829 28.4089 16.6428 28.4013C16.9547 28.3937 17.274 28.4013 17.6008 28.4013ZM17.5488 28.8495C17.3186 28.8723 16.9993 28.8647 16.9844 29.1837C16.977 29.5103 17.3038 29.5179 17.5414 29.5255C17.8013 29.5331 18.1429 29.5331 18.1504 29.1989C18.1652 28.8495 17.8236 28.8647 17.5488 28.8495Z" fill="#050404"/>
      <path d="M15.1649 28.1355C14.7416 28.1431 14.4 27.8164 14.3851 27.3911C14.3777 26.9733 14.7119 26.6239 15.1278 26.6163C15.566 26.6087 15.8853 26.9201 15.8927 27.3607C15.915 27.7937 15.6031 28.1279 15.1649 28.1355Z" fill="#050404"/>
      <path d="M20.7793 27.3531C20.7868 27.8089 20.4971 28.1203 20.059 28.1279C19.6282 28.1355 19.3015 27.8165 19.294 27.3835C19.2866 26.9429 19.5985 26.6087 20.0293 26.6087C20.4674 26.6087 20.7719 26.9049 20.7793 27.3531Z" fill="#050404"/>
      <path d="M14.1326 35.5112C14.2069 35.4656 14.2663 35.4656 14.296 35.5643C14.244 35.5491 14.1921 35.5339 14.1326 35.5112Z" fill="#F18DAF"/>
      <path d="M14.296 13.9386C14.2663 14.0373 14.2069 14.0373 14.1326 13.9918C14.1921 13.9766 14.244 13.9538 14.296 13.9386Z" fill="#F18DAF"/>
      <path d="M17.5488 28.8495C17.8236 28.8647 18.1652 28.8571 18.1578 29.1913C18.1503 29.5255 17.8087 29.5255 17.5488 29.5179C17.3037 29.5103 16.977 29.5027 16.9918 29.1761C16.9918 28.8647 17.3186 28.8723 17.5488 28.8495Z" fill="#F7BACF"/>
      <path d="M31.2581 0.638053C31.1987 0.721609 31.2878 0.698821 31.3101 0.706417C32.0007 0.979872 32.632 1.34448 33.2113 1.81543C33.8574 2.33955 34.3847 2.98521 34.808 3.70683C35.2758 4.50441 35.5655 5.37794 35.6843 6.29706C35.7586 6.82877 35.7586 7.36809 35.7066 7.915C35.6249 8.78854 35.3872 9.6165 34.9936 10.3913C34.3772 11.6142 33.4786 12.5713 32.3052 13.255C31.9636 13.4525 31.5997 13.6044 31.2432 13.7563C31.2358 13.7563 31.2284 13.7639 31.2284 13.7715C31.2358 13.7867 31.2432 13.7943 31.2507 13.8095C31.1244 13.8626 30.9982 13.8551 30.8645 13.8626C30.7977 13.8323 30.7308 13.8019 30.664 13.7791C29.6911 13.4297 28.8296 12.8828 28.1018 12.1384C27.478 11.5003 26.9953 10.7635 26.6462 9.93553C26.1487 8.75056 26.0076 7.52001 26.171 6.25148C26.2824 5.37035 26.5794 4.54239 27.0176 3.7676C27.5003 2.92444 28.1167 2.21042 28.8891 1.62553C29.4906 1.16977 30.159 0.858336 30.8571 0.592477C31.0056 0.592477 31.1318 0.584881 31.2581 0.638053ZM30.2927 9.36583C30.107 9.36583 29.9139 9.36583 29.7282 9.36583C29.5797 9.36583 29.5203 9.43419 29.5649 9.59371C29.6614 9.91274 29.9362 10.133 30.2778 10.133C30.6194 10.133 30.9091 9.91274 30.9982 9.59371C31.0427 9.44179 30.9907 9.36583 30.8348 9.36583C30.6566 9.36583 30.4709 9.36583 30.2927 9.36583ZM28.8593 9.21391C29.1118 9.20632 29.2975 9.01642 29.2901 8.75815C29.2827 8.49989 29.097 8.31759 28.8371 8.31759C28.592 8.32518 28.3915 8.53027 28.3989 8.77334C28.4138 9.02401 28.6143 9.21391 28.8593 9.21391ZM32.1641 8.75056C32.1641 8.4847 31.9785 8.30999 31.7185 8.30999C31.466 8.30999 31.2804 8.50749 31.2878 8.76575C31.2952 9.02401 31.4883 9.20632 31.7408 9.20632C32.0007 9.20632 32.1716 9.02401 32.1641 8.75056Z" fill="#FBE3EB"/>
      <path d="M30.8719 13.8551C30.9982 13.8475 31.1318 13.8627 31.2581 13.8019C32.3943 13.65 33.4118 13.1942 34.3029 12.465C36.0927 10.9838 36.9245 9.05443 36.7834 6.69968C36.7166 5.50711 36.3155 4.42088 35.662 3.441C35.6397 3.40302 35.61 3.36504 35.5877 3.33466C35.4912 3.19034 35.4689 3.04601 35.6174 2.91688C35.7437 2.81054 35.8996 2.84852 36.0259 3.02322C36.7017 3.98791 37.1399 5.06654 37.2735 6.24392C37.5483 8.59867 36.8948 10.6572 35.2535 12.3359C31.5106 16.1719 25.057 14.4931 23.5345 9.2975C23.4751 9.1076 23.4751 8.94809 23.6608 8.83415C23.8762 8.80376 23.9801 8.91011 24.0395 9.1152C24.1658 9.57855 24.344 10.0115 24.5742 10.4293C25.4209 11.9409 26.6314 13.0043 28.2652 13.5512C28.2949 13.5588 28.332 13.574 28.3618 13.5816C28.4657 13.612 28.5623 13.65 28.6662 13.6804C29.3866 13.8703 30.1218 13.9462 30.8719 13.8551Z" fill="#050404"/>
      <path d="M31.2581 0.638062C31.1319 0.58489 31.0056 0.592486 30.8719 0.58489C30.0105 0.486142 29.1713 0.577294 28.3469 0.850749C28.3172 0.858345 28.2801 0.873537 28.2504 0.881133C28.191 0.903921 28.1241 0.911517 28.0647 0.941901C25.9779 1.76227 24.6114 3.27386 23.9802 5.4691C23.9207 5.6666 23.8391 5.79573 23.6237 5.78813C23.4009 5.68179 23.4083 5.49949 23.4677 5.29439C24.0767 3.19031 25.3318 1.62554 27.2701 0.691233C29.9214 -0.592487 32.9811 -0.0683642 35.1273 1.99015C35.2907 2.14206 35.3204 2.30918 35.2016 2.43831C35.0828 2.56744 34.9194 2.54465 34.7486 2.37754C33.8351 1.47362 32.7286 0.911517 31.4735 0.653253C31.4067 0.638062 31.3324 0.645657 31.2581 0.638062Z" fill="#050404"/>
      <path d="M23.6311 5.7881C23.8465 5.7957 23.9282 5.66657 23.9876 5.46907C24.6188 3.27384 25.9779 1.76224 28.0721 0.941871C28.1315 0.919083 28.1984 0.903891 28.2578 0.881104C28.2429 0.995043 28.139 0.995043 28.0647 1.03302C27.4706 1.35205 26.921 1.74704 26.4457 2.22559C25.8145 2.85606 25.3095 3.59287 24.953 4.42842C24.4703 5.56022 24.292 6.7376 24.4183 7.96815C24.5148 8.91765 24.8045 9.80637 25.2649 10.6343C25.8739 11.7433 26.7279 12.6017 27.7974 13.2398C27.9533 13.3309 28.1538 13.3689 28.2578 13.5436C26.624 12.9967 25.4134 11.9408 24.5668 10.4216C24.3366 10.0039 24.1584 9.5709 24.0321 9.10755C23.9801 8.90245 23.8687 8.79611 23.6534 8.82649C23.6311 8.53785 23.5345 8.26439 23.542 7.97574C23.7128 7.92257 23.7796 7.81623 23.7722 7.62633C23.7573 7.34528 23.7573 7.06423 23.7722 6.78318C23.7796 6.60087 23.7128 6.48693 23.542 6.43376C23.5345 6.22867 23.5865 6.00839 23.6311 5.7881Z" fill="#F18DAF"/>
      <path d="M23.5346 6.44897C23.7054 6.50215 23.7722 6.61609 23.7648 6.79839C23.7499 7.07944 23.7499 7.36049 23.7648 7.64154C23.7722 7.82385 23.7054 7.93779 23.5346 7.99096C23.3192 7.97577 23.2301 7.84664 23.2375 7.63395C23.2449 7.36049 23.2449 7.08704 23.2375 6.80599C23.2375 6.5933 23.3192 6.46417 23.5346 6.44897Z" fill="#050404"/>
      <path d="M28.2504 13.5512C28.1464 13.3689 27.9459 13.3385 27.7899 13.2474C26.7131 12.6093 25.8665 11.751 25.2575 10.642C24.7971 9.814 24.5074 8.92527 24.4109 7.97577C24.2846 6.74522 24.4554 5.56784 24.9456 4.43604C25.3021 3.60049 25.8071 2.87127 26.4383 2.23321C26.921 1.75466 27.4632 1.35967 28.0573 1.04064C28.1315 1.00266 28.2355 1.00266 28.2504 0.888722C28.2949 0.91151 28.3321 0.91151 28.3469 0.858338C29.1713 0.584883 30.0105 0.493731 30.8719 0.592479C30.1738 0.850742 29.5054 1.16977 28.9039 1.62553C28.1315 2.20283 27.5151 2.91685 27.0324 3.7676C26.5943 4.54239 26.2972 5.37035 26.1858 6.25148C26.0224 7.52001 26.1635 8.75056 26.6611 9.93553C27.0101 10.7635 27.4929 11.5003 28.1167 12.1384C28.8445 12.8828 29.6985 13.4373 30.6788 13.7791C30.7457 13.8019 30.8125 13.8323 30.8793 13.8627C30.1293 13.9538 29.3941 13.8778 28.6663 13.6955C28.5623 13.6728 28.4583 13.6348 28.3618 13.5968C28.3321 13.5284 28.2949 13.5284 28.2504 13.5512ZM24.901 7.08704C24.8862 7.84664 24.9976 8.52268 25.1981 9.18353C25.2501 9.35824 25.3615 9.44179 25.5397 9.40381C25.6808 9.37343 25.7476 9.19872 25.6957 9.02401C25.51 8.38595 25.4209 7.74029 25.4209 7.07185C25.4209 6.73762 25.4803 6.411 25.51 6.07677C25.5248 5.90966 25.4729 5.77294 25.2946 5.75015C25.1164 5.72736 25.0124 5.8337 24.9827 6.01601C24.9307 6.39581 24.8787 6.76801 24.901 7.08704ZM26.7799 3.06117C26.7799 2.93204 26.7354 2.84089 26.624 2.80291C26.5051 2.76493 26.3937 2.78012 26.3121 2.88646C26.0893 3.18271 25.9036 3.50174 25.7254 3.82837C25.6288 4.00307 25.6957 4.1322 25.8516 4.21576C26.0001 4.29172 26.1115 4.22336 26.1932 4.07903C26.3492 3.80558 26.5051 3.52453 26.6908 3.26626C26.7428 3.2055 26.7948 3.14473 26.7799 3.06117ZM25.4654 5.47669C25.5694 5.49188 25.6511 5.43112 25.6957 5.31718C25.7402 5.21083 25.7774 5.09689 25.8071 4.98295C25.8516 4.82344 25.7922 4.69431 25.6437 4.64113C25.4951 4.58796 25.3689 4.64873 25.3021 4.80065C25.2501 4.91459 25.2204 5.03613 25.1832 5.15766C25.1461 5.33237 25.2575 5.47669 25.4654 5.47669Z" fill="#F7BACF"/>
      <path d="M30.2927 9.36584C30.4709 9.36584 30.6566 9.36584 30.8348 9.36584C30.9907 9.36584 31.0427 9.4418 30.9982 9.59372C30.9091 9.91275 30.6194 10.133 30.2778 10.133C29.9362 10.133 29.654 9.92035 29.5649 9.59372C29.5203 9.43421 29.5723 9.36584 29.7282 9.36584C29.9139 9.36584 30.107 9.36584 30.2927 9.36584ZM30.263 9.6317C30.1293 9.6469 29.9362 9.6393 29.9362 9.8292C29.9288 10.0191 30.1218 10.0267 30.263 10.0343C30.4115 10.0343 30.6194 10.0343 30.6194 9.84439C30.6268 9.6317 30.4263 9.6393 30.263 9.6317Z" fill="#050404"/>
      <path d="M28.8594 9.21393C28.6143 9.22152 28.4063 9.02403 28.3989 8.77336C28.3915 8.53029 28.592 8.3176 28.8371 8.3176C29.097 8.31001 29.2827 8.49991 29.2901 8.75817C29.2975 9.00884 29.1193 9.20633 28.8594 9.21393Z" fill="#050404"/>
      <path d="M32.1641 8.75056C32.1641 9.01642 32.0008 9.20632 31.7408 9.20632C31.4883 9.21392 31.2953 9.02402 31.2878 8.76576C31.2804 8.50749 31.4661 8.31 31.7186 8.31C31.9859 8.31 32.1641 8.4923 32.1641 8.75056Z" fill="#050404"/>
      <path d="M28.2578 13.5513C28.3024 13.5285 28.3395 13.5285 28.3543 13.5817C28.3172 13.5741 28.2875 13.5665 28.2578 13.5513Z" fill="#F18DAF"/>
      <path d="M28.3469 0.850769C28.3321 0.911537 28.295 0.911537 28.2504 0.881153C28.2875 0.873557 28.3172 0.865961 28.3469 0.850769Z" fill="#F18DAF"/>
      <path d="M30.263 9.63171C30.4263 9.63931 30.6269 9.63171 30.6194 9.8368C30.612 10.0343 30.4115 10.0343 30.263 10.0267C30.1219 10.0267 29.9288 10.0191 29.9362 9.82161C29.9362 9.63931 30.1293 9.64691 30.263 9.63171Z" fill="#F7BACF"/>
      <path d="M41.5883 16.301C41.5215 16.3998 41.6255 16.3694 41.6552 16.3846C42.4944 16.7188 43.2742 17.1669 43.9797 17.7366C44.7743 18.3823 45.413 19.1647 45.9328 20.0458C46.5047 21.0257 46.8612 22.0815 47.0023 23.2057C47.0914 23.859 47.0914 24.5198 47.0245 25.1883C46.9206 26.2593 46.6384 27.2696 46.1556 28.2191C45.3981 29.7155 44.3064 30.8853 42.8731 31.7208C42.4572 31.9639 42.0117 32.1462 41.5735 32.3361C41.5661 32.3361 41.5586 32.3513 41.5586 32.3513C41.5661 32.3665 41.5735 32.3817 41.5883 32.3969C41.4398 32.4652 41.2764 32.45 41.1205 32.4576C41.0388 32.4272 40.9571 32.3893 40.8754 32.3589C39.6797 31.9335 38.6326 31.2575 37.7414 30.3536C36.9839 29.5788 36.3898 28.6748 35.9665 27.6646C35.3575 26.2137 35.1867 24.7097 35.3872 23.1602C35.5283 22.0815 35.8848 21.0637 36.4195 20.1218C37.0062 19.0887 37.7637 18.2152 38.7069 17.5012C39.4421 16.9467 40.2664 16.5593 41.1205 16.2402C41.2764 16.2478 41.4324 16.2402 41.5883 16.301ZM40.4075 26.9809C40.1773 26.9809 39.9471 26.9809 39.7169 26.9809C39.5312 26.9809 39.4644 27.0645 39.5238 27.262C39.6352 27.657 39.9842 27.9228 40.4001 27.9228C40.816 27.9228 41.1725 27.657 41.2764 27.2696C41.3284 27.0873 41.269 26.9885 41.0759 26.9885C40.8531 26.9733 40.6303 26.9809 40.4075 26.9809ZM38.6549 26.791C38.9668 26.7834 39.1896 26.548 39.1822 26.2289C39.1747 25.9099 38.9445 25.6896 38.6326 25.6896C38.3281 25.6972 38.0905 25.9479 38.0979 26.2517C38.1053 26.5556 38.3504 26.791 38.6549 26.791ZM42.6949 26.2289C42.6875 25.9023 42.4721 25.6896 42.1528 25.6896C41.8483 25.6972 41.6181 25.9327 41.6255 26.2517C41.6329 26.5632 41.8631 26.791 42.175 26.791C42.4944 26.7834 42.7023 26.5556 42.6949 26.2289Z" fill="#FBE3EB"/>
      <path d="M41.1131 32.4652C41.269 32.4576 41.4324 32.4728 41.5809 32.4044C42.9697 32.2221 44.2174 31.6676 45.3016 30.7713C47.485 28.9634 48.5024 26.6011 48.3316 23.7298C48.2425 22.279 47.7598 20.9497 46.9577 19.7419C46.928 19.6963 46.8983 19.6508 46.8686 19.6052C46.7498 19.4305 46.7201 19.2482 46.9057 19.0963C47.0617 18.9671 47.2548 19.0127 47.4033 19.2254C48.2351 20.4104 48.7624 21.7169 48.9332 23.1601C49.2748 26.039 48.4727 28.5533 46.4602 30.6118C41.8854 35.2985 33.9911 33.2476 32.1344 26.8973C32.0676 26.6619 32.0602 26.472 32.2904 26.3352C32.5503 26.2973 32.684 26.4264 32.7508 26.6771C32.9068 27.2392 33.1222 27.7785 33.4044 28.2798C34.4367 30.1332 35.922 31.4321 37.9197 32.093C37.9568 32.1082 37.9939 32.1234 38.0385 32.131C38.1648 32.1689 38.291 32.2145 38.4173 32.2449C39.301 32.488 40.1996 32.5791 41.1131 32.4652Z" fill="#050404"/>
      <path d="M41.5883 16.301C41.4398 16.2326 41.2764 16.2478 41.1205 16.2402C40.0659 16.1263 39.0411 16.2326 38.0311 16.5668C37.9939 16.582 37.9568 16.5972 37.9122 16.6048C37.838 16.6276 37.7563 16.6428 37.682 16.6732C35.1273 17.6758 33.4638 19.5217 32.6914 22.2106C32.6246 22.4537 32.5206 22.6056 32.2607 22.598C31.9859 22.4689 32.0007 22.2486 32.075 21.998C32.8177 19.4229 34.3549 17.5163 36.7314 16.3693C39.9768 14.8046 43.7198 15.4426 46.3339 17.9569C46.527 18.1468 46.5641 18.3519 46.4304 18.5038C46.2893 18.6633 46.0888 18.6405 45.8734 18.4278C44.7372 17.3188 43.3856 16.6352 41.8483 16.3238C41.7666 16.3086 41.6775 16.3086 41.5883 16.301Z" fill="#050404"/>
      <path d="M32.2607 22.6057C32.5206 22.6133 32.6246 22.4613 32.6914 22.2183C33.4638 19.5293 35.1273 17.6835 37.682 16.6808C37.7563 16.6504 37.8305 16.6352 37.9122 16.6124C37.8974 16.7568 37.7637 16.7568 37.6746 16.8023C36.9468 17.1973 36.2784 17.6759 35.6917 18.2608C34.9194 19.0355 34.303 19.9319 33.8648 20.9497C33.2707 22.3398 33.0553 23.7754 33.2113 25.2794C33.3301 26.4416 33.6866 27.5279 34.2435 28.5381C34.9936 29.8902 36.0259 30.946 37.3404 31.7208C37.5335 31.8348 37.7786 31.8727 37.9048 32.093C35.9071 31.4322 34.4292 30.1257 33.3895 28.2799C33.1073 27.7709 32.8919 27.2392 32.736 26.6771C32.6691 26.4264 32.5354 26.2973 32.2755 26.3353C32.2458 25.9859 32.127 25.6516 32.1344 25.2946C32.3424 25.2263 32.424 25.0971 32.4166 24.8693C32.4018 24.5274 32.4018 24.1856 32.4166 23.8438C32.424 23.6159 32.3424 23.4792 32.1344 23.4184C32.1418 23.1374 32.2013 22.8715 32.2607 22.6057Z" fill="#F18DAF"/>
      <path d="M32.1493 23.4108C32.3572 23.4716 32.4389 23.6083 32.4315 23.8362C32.4166 24.178 32.4166 24.5198 32.4315 24.8617C32.4389 25.0895 32.3572 25.2187 32.1493 25.287C31.8819 25.2642 31.778 25.1123 31.7854 24.8541C31.7928 24.5198 31.7928 24.178 31.7854 23.8438C31.778 23.5855 31.8819 23.4336 32.1493 23.4108Z" fill="#050404"/>
      <path d="M37.9122 32.1006C37.786 31.8803 37.5409 31.8347 37.3478 31.7284C36.0333 30.946 35.001 29.8977 34.251 28.5457C33.6865 27.5278 33.3375 26.4492 33.2187 25.287C33.0627 23.783 33.2781 22.3474 33.8722 20.9573C34.3104 19.9318 34.9193 19.0431 35.6991 18.2683C36.2858 17.6834 36.9542 17.2049 37.682 16.8099C37.7711 16.7643 37.8974 16.7643 37.9196 16.62C37.9716 16.6504 38.0162 16.6504 38.0385 16.582C39.041 16.2478 40.0733 16.1338 41.1279 16.2554C40.2738 16.5744 39.4569 16.9618 38.7143 17.5163C37.7711 18.2227 37.0136 19.0963 36.4269 20.1369C35.8848 21.0788 35.5283 22.0967 35.3946 23.1753C35.1941 24.7249 35.3649 26.2289 35.9739 27.6797C36.3972 28.6976 36.9913 29.5939 37.7488 30.3687C38.64 31.2802 39.6871 31.9563 40.8828 32.374C40.9645 32.4044 41.0462 32.4424 41.1279 32.4728C40.2144 32.5867 39.3084 32.488 38.4172 32.2601C38.291 32.2297 38.1647 32.1841 38.0385 32.1386C38.0088 32.0702 37.9716 32.0626 37.9122 32.1006ZM33.8128 24.1856C33.7979 25.1123 33.9242 25.9402 34.1767 26.753C34.2435 26.9733 34.3772 27.072 34.6 27.0265C34.7708 26.9885 34.8525 26.7758 34.7857 26.5631C34.5554 25.7883 34.4515 24.9907 34.4515 24.178C34.4515 23.7678 34.5257 23.3652 34.5629 22.9626C34.5777 22.7575 34.5109 22.5904 34.2955 22.56C34.0727 22.5297 33.9539 22.6664 33.9168 22.8867C33.8499 23.3424 33.7905 23.7982 33.8128 24.1856ZM36.115 19.271C36.115 19.1191 36.063 19.0051 35.9293 18.9595C35.7808 18.914 35.6471 18.9292 35.5432 19.0583C35.2684 19.4153 35.0456 19.8103 34.8302 20.2053C34.7188 20.418 34.7931 20.5775 34.9862 20.6838C35.1718 20.7826 35.2981 20.6914 35.4021 20.5167C35.5952 20.1825 35.7808 19.8407 36.011 19.5292C36.0704 19.4533 36.1299 19.3697 36.115 19.271ZM34.5035 22.2258C34.6297 22.241 34.7337 22.1726 34.7857 22.0283C34.8376 21.8916 34.8896 21.7625 34.9268 21.6181C34.9788 21.4282 34.9119 21.2687 34.7263 21.2004C34.5406 21.132 34.3921 21.2156 34.3104 21.3903C34.251 21.527 34.2064 21.6789 34.1693 21.8308C34.1099 22.0511 34.251 22.2182 34.5035 22.2258Z" fill="#F7BACF"/>
      <path d="M40.4075 26.9809C40.6303 26.9809 40.8531 26.9809 41.0759 26.9809C41.269 26.9809 41.3284 27.0797 41.2764 27.262C41.1725 27.6494 40.816 27.9152 40.4001 27.9152C39.9842 27.9152 39.6352 27.6494 39.5238 27.2544C39.4644 27.0569 39.5386 26.9733 39.7169 26.9733C39.9471 26.9733 40.1773 26.9809 40.4075 26.9809ZM40.3704 27.3C40.207 27.3151 39.9694 27.3075 39.9694 27.5354C39.9619 27.7709 40.1996 27.7785 40.3704 27.7785C40.5561 27.7861 40.8011 27.7785 40.8086 27.543C40.816 27.3075 40.5635 27.3151 40.3704 27.3Z" fill="#050404"/>
      <path d="M38.6549 26.791C38.3504 26.7986 38.1053 26.5631 38.0979 26.2517C38.0905 25.9478 38.3355 25.6972 38.6326 25.6896C38.9445 25.682 39.1747 25.9099 39.1822 26.2289C39.1896 26.5479 38.9668 26.7834 38.6549 26.791Z" fill="#050404"/>
      <path d="M42.6949 26.2289C42.7023 26.5555 42.4944 26.7834 42.1751 26.791C41.8631 26.7986 41.6329 26.5707 41.6255 26.2517C41.6181 25.9326 41.8483 25.6972 42.1528 25.6896C42.4721 25.6896 42.6949 25.9023 42.6949 26.2289Z" fill="#050404"/>
      <path d="M37.9122 32.1006C37.9642 32.0702 38.0088 32.0702 38.0311 32.1386C37.9939 32.1234 37.9494 32.1082 37.9122 32.1006Z" fill="#F18DAF"/>
      <path d="M38.0311 16.5668C38.0088 16.6352 37.9716 16.6428 37.9122 16.6048C37.9494 16.5972 37.9939 16.582 38.0311 16.5668Z" fill="#F18DAF"/>
      <path d="M40.3704 27.2999C40.5635 27.3151 40.816 27.2999 40.8086 27.5506C40.8011 27.7861 40.5561 27.7937 40.3704 27.7861C40.1922 27.7785 39.9619 27.7709 39.9694 27.543C39.9694 27.3151 40.207 27.3151 40.3704 27.2999Z" fill="#F7BACF"/>
  </g>
  <defs>
    <clipPath id="clip0">
      <rect width="49" height="37" fill="white"/>
    </clipPath>
  </defs>
</svg>
