<svg width="56" height="37" viewBox="0 0 56 37" fill="none"
  xmlns="http://www.w3.org/2000/svg">
  <g opacity="0.7">
    <g clip-path="url(#clip0)">
      <path d="M30.1714 35.8861C30.1445 36.0748 30.0097 36.1646 29.839 36.2095C29.5874 36.2724 29.4167 36.4161 29.3628 36.6856C29.3269 36.8563 29.228 36.991 29.0304 37C28.8147 37.009 28.6979 36.8652 28.662 36.6766C28.6081 36.4071 28.4284 36.2814 28.1858 36.2095C28.0151 36.1646 27.8713 36.0658 27.8713 35.8771C27.8713 35.6615 28.0151 35.5538 28.2037 35.5088C28.4733 35.446 28.6171 35.3022 28.671 35.0328C28.7069 34.8621 28.8057 34.7184 28.9944 34.7094C29.1831 34.7004 29.3089 34.8262 29.3448 34.9968C29.4077 35.3022 29.5874 35.4549 29.8749 35.5268C30.0636 35.5717 30.1625 35.6975 30.1714 35.8861Z" fill="#F18DAF"/>
      <path d="M31.1778 34.3231C31.1778 33.7931 31.5821 33.3979 32.1122 33.4069C32.6513 33.4159 33.0466 33.8021 33.0466 34.3321C33.0556 34.8441 32.6333 35.2753 32.1212 35.2843C31.5821 35.2933 31.1778 34.8801 31.1778 34.3231ZM32.5165 34.3231C32.4536 34.0986 32.3458 33.9189 32.0852 33.9459C31.8427 33.9728 31.7169 34.1255 31.7258 34.377C31.7438 34.6196 31.9145 34.7274 32.1212 34.7274C32.3548 34.7184 32.4806 34.5477 32.5165 34.3231Z" fill="#F18DAF"/>
      <path d="M26.245 35.2124C26.0294 34.934 25.6969 34.6914 25.6969 34.4399C25.6969 34.2154 26.0563 33.8291 26.281 33.8201C26.4876 33.8111 26.9009 34.1704 26.9009 34.386C26.9189 34.6106 26.5595 34.8531 26.245 35.2124Z" fill="#F18DAF"/>
      <path d="M32.5165 34.3231C32.4806 34.5477 32.3548 34.7274 32.1212 34.7274C31.9145 34.7363 31.7438 34.6196 31.7258 34.377C31.7079 34.1255 31.8426 33.9818 32.0852 33.9459C32.3458 33.9189 32.4536 34.0986 32.5165 34.3231Z" fill="#FEFEFE"/>
      <path d="M27.7545 1.50013C27.7275 1.67979 27.6197 1.78758 27.467 1.82351C27.1705 1.88639 26.9998 2.05706 26.9369 2.35349C26.9009 2.5062 26.8201 2.63196 26.6404 2.64992C26.4517 2.66789 26.3169 2.55111 26.272 2.38044C26.1911 2.08401 26.0384 1.88639 25.7149 1.82351C25.5622 1.79656 25.4633 1.6708 25.4633 1.49115C25.4633 1.31149 25.5622 1.19472 25.7149 1.15878C26.0384 1.09591 26.2001 0.898285 26.272 0.601853C26.3169 0.449146 26.4247 0.341353 26.5954 0.332371C26.7751 0.323388 26.883 0.431181 26.9189 0.583888C26.9908 0.91625 27.1795 1.10489 27.5029 1.17675C27.6736 1.21268 27.7455 1.34742 27.7545 1.50013Z" fill="#F18DAF"/>
      <path d="M34.5291 4.4554C34.008 4.4554 33.5857 4.0422 33.5678 3.53018C33.5588 3.04511 34.017 2.58699 34.5112 2.57801C35.0233 2.56902 35.5085 3.04511 35.4905 3.53916C35.4726 4.06016 35.0593 4.4554 34.5291 4.4554ZM34.1608 3.55713C34.1787 3.76373 34.2955 3.91644 34.5471 3.90746C34.7717 3.89847 34.8975 3.75475 34.8975 3.53018C34.9065 3.26968 34.7448 3.13494 34.5112 3.14392C34.3135 3.1529 34.1608 3.27866 34.1608 3.55713Z" fill="#F18DAF"/>
      <path d="M29.5066 2.55106C29.5155 2.14684 29.83 1.85041 30.2343 1.85939C30.6566 1.86837 30.9621 2.19175 30.9352 2.61394C30.9172 3.01817 30.5937 3.30562 30.1894 3.28765C29.7851 3.26968 29.4976 2.95529 29.5066 2.55106Z" fill="#F7BACF"/>
      <path d="M32.4626 0.646739C32.4716 0.574877 33.0466 -0.00900227 33.1095 -1.95079e-05C33.1724 0.00896326 33.7474 0.646739 33.7115 0.68267C33.5138 0.898257 33.2982 1.10486 33.0915 1.30248C33.0646 1.32943 32.4626 0.700636 32.4626 0.646739Z" fill="#F18DAF"/>
      <path d="M34.1608 3.55718C34.1608 3.27872 34.3135 3.14398 34.5202 3.14398C34.7448 3.13499 34.9155 3.26973 34.9065 3.53023C34.8975 3.7548 34.7807 3.89853 34.5561 3.90751C34.2955 3.91649 34.1787 3.76379 34.1608 3.55718Z" fill="#FEFEFE"/>
      <path d="M16.4784 6.50355C16.3616 6.66524 16.5413 6.62032 16.5862 6.63829C17.9969 7.18624 19.3087 7.92282 20.4947 8.86601C21.8334 9.92598 22.9026 11.2105 23.7832 12.6657C24.7446 14.2736 25.3376 16.0163 25.5891 17.8578C25.7329 18.9357 25.7419 20.0136 25.6341 21.1095C25.4634 22.8701 24.9872 24.532 24.1785 26.095C22.9026 28.5473 21.0697 30.4696 18.6528 31.8439C17.9519 32.2482 17.2062 32.5446 16.4604 32.859C16.4515 32.859 16.4335 32.8859 16.4335 32.8859C16.4425 32.9129 16.4604 32.9308 16.4784 32.9578C16.2268 33.0656 15.9573 33.0476 15.6877 33.0566C15.553 33.0027 15.4092 32.9398 15.2744 32.8859C13.2708 32.1853 11.5097 31.0804 10.0092 29.5893C8.73339 28.3137 7.73606 26.8315 7.02625 25.1697C6.00196 22.7893 5.71445 20.3101 6.04689 17.7679C6.2805 15.9983 6.88249 14.3275 7.78997 12.7735C8.77831 11.0758 10.0542 9.63853 11.6355 8.47077C12.8754 7.56351 14.2501 6.92574 15.6877 6.39575C15.9573 6.4227 16.2268 6.39575 16.4784 6.50355ZM14.5017 24.0469C14.1154 24.0469 13.729 24.0379 13.3337 24.0469C13.0282 24.0559 12.9114 24.1906 13.0012 24.514C13.1899 25.1608 13.765 25.5919 14.4748 25.5919C15.1756 25.5919 15.7686 25.1518 15.9483 24.514C16.0381 24.2086 15.9393 24.0469 15.6159 24.0469C15.2475 24.0469 14.8701 24.0469 14.5017 24.0469ZM11.5547 23.7325C12.0758 23.7235 12.4532 23.3372 12.4442 22.8162C12.4352 22.2952 12.0488 21.927 11.5187 21.9359C11.0156 21.9449 10.6023 22.3581 10.6202 22.8522C10.6292 23.3552 11.0515 23.7415 11.5547 23.7325ZM18.3473 22.8162C18.3383 22.2863 17.9699 21.927 17.4308 21.9359C16.9097 21.9449 16.5323 22.3402 16.5413 22.8522C16.5503 23.3642 16.9456 23.7415 17.4668 23.7325C18.0058 23.7235 18.3563 23.3552 18.3473 22.8162Z" fill="#FBE3EB"/>
      <path d="M15.6877 33.0566C15.9573 33.0386 16.2268 33.0655 16.4784 32.9578C18.8145 32.6523 20.908 31.7451 22.7319 30.2719C26.4068 27.2986 28.1139 23.4181 27.8264 18.7021C27.6826 16.3127 26.865 14.1299 25.5173 12.1537C25.4633 12.0818 25.4094 12.0099 25.3645 11.9381C25.1579 11.6417 25.1129 11.3542 25.4184 11.1027C25.679 10.8871 26.0024 10.9679 26.254 11.3183C27.6467 13.2585 28.5362 15.4144 28.8237 17.7859C29.3898 22.5198 28.042 26.6429 24.6727 30.0204C16.9816 37.7276 3.71079 34.3501 0.593013 23.9211C0.476209 23.5348 0.467224 23.2204 0.853577 22.9959C1.29384 22.933 1.50948 23.1486 1.62628 23.5528C1.88685 24.478 2.24624 25.3583 2.72245 26.1937C4.46552 29.2389 6.95435 31.3678 10.3057 32.4637C10.3686 32.4817 10.4315 32.5086 10.5034 32.5266C10.7101 32.5895 10.9257 32.6703 11.1324 32.7242C12.6328 33.0925 14.1513 33.2452 15.6877 33.0566Z" fill="#050404"/>
      <path d="M16.4784 6.50352C16.2268 6.39573 15.9572 6.4137 15.6877 6.40471C13.9177 6.20709 12.1925 6.39573 10.5034 6.94368C10.4405 6.96164 10.3776 6.98859 10.3057 7.00656C10.1799 7.04249 10.0451 7.07842 9.91936 7.12333C5.62455 8.77616 2.82125 11.8034 1.5364 16.2229C1.4196 16.6181 1.24888 16.8696 0.808623 16.8607C0.350391 16.6451 0.36836 16.2858 0.49415 15.8725C1.74306 11.6417 4.32174 8.50668 8.31105 6.62928C13.7649 4.05123 20.0544 5.10221 24.457 9.23428C24.7894 9.5397 24.8433 9.88104 24.6187 10.1326C24.3761 10.3931 24.0437 10.3481 23.6843 10.0068C21.7705 8.19228 19.5063 7.06045 16.9276 6.54844C16.7839 6.52149 16.6311 6.52149 16.4784 6.50352Z" fill="#050404"/>
      <path d="M0.808645 16.8606C1.24891 16.8786 1.41962 16.6181 1.53642 16.2228C2.83026 11.8123 5.63356 8.77614 9.91938 7.12331C10.0452 7.07839 10.171 7.04246 10.3057 7.00653C10.2788 7.24008 10.0542 7.24008 9.91039 7.32093C8.68844 7.96769 7.56532 8.74919 6.57698 9.71034C5.27416 10.9859 4.24089 12.4501 3.51311 14.1299C2.51578 16.4115 2.15639 18.774 2.41695 21.2532C2.6236 23.1665 3.20762 24.9451 4.16003 26.6159C5.41792 28.8346 7.161 30.5683 9.37129 31.8439C9.69475 32.0325 10.1081 32.0954 10.3147 32.4637C6.96333 31.3768 4.46552 29.2389 2.73142 26.1937C2.25522 25.3583 1.88684 24.478 1.63526 23.5528C1.51846 23.1486 1.30282 22.933 0.862554 22.9958C0.81763 22.421 0.610976 21.864 0.628946 21.2801C0.970374 21.1723 1.11413 20.9568 1.10515 20.5795C1.07819 20.0136 1.07819 19.4566 1.10515 18.8907C1.12312 18.5224 0.979359 18.2979 0.628946 18.1901C0.610976 17.732 0.70981 17.3008 0.808645 16.8606Z" fill="#F18DAF"/>
      <path d="M0.61996 18.1901C0.970373 18.2979 1.10515 18.5225 1.09616 18.8908C1.06921 19.4567 1.06921 20.0136 1.09616 20.5795C1.11413 20.9478 0.970373 21.1724 0.61996 21.2802C0.179698 21.2443 -6.26955e-07 20.9927 -6.26955e-07 20.5616C0.00898432 20.0136 0.00898432 19.4567 -6.26955e-07 18.9087C-0.00898557 18.4776 0.170713 18.2171 0.61996 18.1901Z" fill="#050404"/>
      <path d="M10.3057 32.4547C10.0991 32.0954 9.68577 32.0236 9.36231 31.8349C7.15202 30.5504 5.40894 28.8257 4.15104 26.607C3.20763 24.9362 2.61462 23.1666 2.40797 21.2442C2.15639 18.774 2.51578 16.4115 3.51311 14.1389C4.24988 12.4591 5.27416 10.9949 6.57698 9.71937C7.56532 8.75821 8.68844 7.96773 9.91039 7.32995C10.0542 7.24911 10.2788 7.24911 10.3057 7.01556C10.3956 7.06945 10.4675 7.06945 10.5034 6.95268C12.1926 6.40473 13.9267 6.22507 15.6877 6.41371C14.2501 6.93471 12.8754 7.57249 11.6355 8.48873C10.0542 9.65649 8.77829 11.0937 7.78995 12.7915C6.88247 14.3455 6.28048 16.0073 6.04687 17.7859C5.71443 20.328 6.00194 22.8072 7.02623 25.1877C7.74502 26.8585 8.73337 28.3316 10.0092 29.6072C11.5097 31.1073 13.2708 32.2122 15.2744 32.9039C15.4182 32.9488 15.5529 33.0117 15.6877 33.0745C14.1513 33.2542 12.6328 33.1015 11.1323 32.7332C10.9167 32.6793 10.7101 32.6074 10.5034 32.5356C10.4764 32.4098 10.4046 32.4008 10.3057 32.4547ZM3.41428 19.4567C3.38732 20.9838 3.60296 22.3401 4.02526 23.6696C4.14206 24.0289 4.36668 24.1906 4.73507 24.1097C5.02258 24.0469 5.15736 23.7055 5.04954 23.3462C4.67217 22.0796 4.49247 20.7682 4.49247 19.4387C4.49247 18.765 4.61826 18.1093 4.67217 17.4445C4.69913 17.1032 4.59131 16.8337 4.23191 16.7888C3.86353 16.7439 3.65687 16.9595 3.59398 17.3278C3.47717 18.0733 3.37834 18.8279 3.41428 19.4567ZM7.28679 11.3812C7.28679 11.1297 7.19694 10.941 6.97232 10.8692C6.72972 10.7883 6.49612 10.8153 6.3254 11.0398C5.86717 11.6327 5.4898 12.2705 5.12142 12.9262C4.93273 13.2765 5.05852 13.546 5.38198 13.7077C5.69646 13.8604 5.91209 13.7257 6.08281 13.4382C6.40627 12.8813 6.72074 12.3244 7.10709 11.8124C7.20593 11.6776 7.31375 11.5429 7.28679 11.3812ZM4.57334 16.2319C4.78898 16.2588 4.95969 16.142 5.04954 15.9085C5.13939 15.6839 5.22025 15.4683 5.28315 15.2348C5.36401 14.9204 5.25619 14.6599 4.9507 14.5431C4.64522 14.4353 4.38465 14.5611 4.24988 14.8575C4.15104 15.0911 4.07917 15.3336 4.01627 15.5761C3.91744 15.9444 4.15104 16.2319 4.57334 16.2319Z" fill="#F7BACF"/>
      <path d="M14.5017 24.0468C14.8791 24.0468 15.2475 24.0468 15.6248 24.0468C15.9483 24.0468 16.0471 24.2085 15.9573 24.5139C15.7776 25.1517 15.1846 25.5919 14.4837 25.5919C13.7829 25.5919 13.2079 25.1607 13.0102 24.5139C12.9114 24.1906 13.0282 24.0558 13.3426 24.0468C13.72 24.0379 14.1154 24.0468 14.5017 24.0468ZM14.4388 24.5768C14.1603 24.6038 13.7739 24.5948 13.756 24.9721C13.747 25.3583 14.1423 25.3673 14.4298 25.3763C14.7443 25.3853 15.1576 25.3853 15.1666 24.99C15.1846 24.5858 14.7713 24.5948 14.4388 24.5768Z" fill="#050404"/>
      <path d="M11.5546 23.7324C11.0425 23.7414 10.6292 23.3552 10.6112 22.8521C10.6022 22.3581 11.0065 21.9449 11.5097 21.9359C12.0398 21.9269 12.4262 22.2952 12.4351 22.8162C12.4621 23.3282 12.0847 23.7235 11.5546 23.7324Z" fill="#050404"/>
      <path d="M18.3473 22.8162C18.3563 23.3552 18.0058 23.7235 17.4757 23.7325C16.9546 23.7414 16.5593 23.3642 16.5503 22.8521C16.5413 22.3311 16.9187 21.9359 17.4398 21.9359C17.9699 21.9269 18.3383 22.2772 18.3473 22.8162Z" fill="#050404"/>
      <path d="M10.3057 32.4547C10.3956 32.4008 10.4675 32.4008 10.5034 32.5176C10.4405 32.4996 10.3776 32.4817 10.3057 32.4547Z" fill="#F18DAF"/>
      <path d="M10.5034 6.94366C10.4675 7.06044 10.3956 7.06044 10.3057 7.00654C10.3776 6.98858 10.4405 6.96163 10.5034 6.94366Z" fill="#F18DAF"/>
      <path d="M14.4388 24.5768C14.7712 24.5948 15.1846 24.5858 15.1756 24.9811C15.1666 25.3763 14.7533 25.3763 14.4388 25.3673C14.1423 25.3583 13.747 25.3494 13.7649 24.9631C13.7649 24.5948 14.1603 24.6038 14.4388 24.5768Z" fill="#F7BACF"/>
      <path d="M45.6166 9.25223C45.5267 9.37799 45.6615 9.34206 45.6974 9.36002C46.8206 9.7912 47.8538 10.3751 48.7972 11.1206C49.8575 11.965 50.711 12.9801 51.4029 14.1299C52.1666 15.4054 52.6338 16.7888 52.8315 18.253C52.9483 19.1063 52.9483 19.9597 52.8674 20.831C52.7326 22.2233 52.3553 23.5438 51.7084 24.7834C50.702 26.7237 49.2465 28.2508 47.3327 29.3467C46.7756 29.6611 46.1826 29.9036 45.5986 30.1461C45.5896 30.1461 45.5806 30.1641 45.5806 30.1641C45.5896 30.1821 45.6076 30.2 45.6166 30.218C45.4189 30.3078 45.2033 30.2899 44.9876 30.2988C44.8798 30.2539 44.772 30.209 44.6552 30.1641C43.0648 29.6072 41.6722 28.7358 40.4862 27.5501C39.4709 26.5351 38.6892 25.3673 38.1231 24.0468C37.3145 22.1605 37.0809 20.1932 37.3504 18.1811C37.5391 16.7798 38.0153 15.4593 38.7341 14.2197C39.5158 12.8723 40.5311 11.7315 41.789 10.8152C42.7683 10.0966 43.8645 9.58459 44.9966 9.17139C45.2033 9.18037 45.4189 9.1624 45.6166 9.25223ZM44.0532 23.1486C43.7477 23.1486 43.4422 23.1486 43.1277 23.1486C42.8851 23.1486 42.7863 23.2653 42.8672 23.5169C43.0199 24.0289 43.4782 24.3702 44.0352 24.3702C44.5923 24.3702 45.0595 24.0199 45.2033 23.5169C45.2751 23.2743 45.1943 23.1486 44.9427 23.1486C44.6372 23.1486 44.3407 23.1486 44.0532 23.1486ZM41.7171 22.897C42.1304 22.8881 42.4269 22.5827 42.4179 22.1694C42.4089 21.7562 42.1035 21.4688 41.6812 21.4688C41.2768 21.4778 40.9534 21.8012 40.9714 22.1964C40.9803 22.6006 41.3128 22.906 41.7171 22.897ZM47.0991 22.1694C47.0901 21.7473 46.8026 21.4688 46.3713 21.4688C45.958 21.4778 45.6615 21.7832 45.6705 22.1964C45.6795 22.6096 45.9939 22.906 46.4072 22.897C46.8295 22.8881 47.1081 22.6006 47.0991 22.1694Z" fill="#FBE3EB"/>
      <path d="M44.9966 30.2989C45.2033 30.2899 45.4189 30.3078 45.6256 30.218C47.4765 29.9755 49.1387 29.2569 50.5853 28.0891C53.4964 25.7356 54.8531 22.6545 54.6285 18.9177C54.5117 17.0223 53.8737 15.2977 52.7955 13.7257C52.7596 13.6628 52.7147 13.6089 52.6698 13.555C52.508 13.3214 52.4721 13.0969 52.7147 12.8903C52.9213 12.7196 53.1819 12.7825 53.3796 13.0609C54.4847 14.597 55.1855 16.3127 55.4102 18.1901C55.8594 21.9359 54.7902 25.2146 52.1217 27.8915C46.0299 33.9998 35.5085 31.3229 33.0287 23.0588C32.9388 22.7533 32.9298 22.5018 33.2353 22.3222C33.5857 22.2773 33.7565 22.4479 33.8463 22.7713C34.053 23.4989 34.3405 24.1996 34.7178 24.8643C36.0925 27.2717 38.0692 28.9694 40.7288 29.8318C40.7827 29.8497 40.8276 29.8677 40.8815 29.8857C41.0522 29.9396 41.214 29.9934 41.3847 30.0384C42.5707 30.3168 43.7747 30.4426 44.9966 30.2989Z" fill="#050404"/>
      <path d="M45.6166 9.25223C45.4189 9.16241 45.2033 9.18037 44.9876 9.17139C43.586 9.01868 42.2113 9.16241 40.8725 9.59358C40.8186 9.61155 40.7737 9.62951 40.7198 9.64748C40.6209 9.67442 40.5131 9.70137 40.4143 9.7373C37.009 11.0488 34.7897 13.4472 33.7654 16.9505C33.6756 17.2649 33.5408 17.4625 33.1904 17.4535C32.831 17.2828 32.849 16.9954 32.9388 16.672C33.9272 13.3124 35.9757 10.8332 39.1384 9.34206C43.4602 7.30297 48.4468 8.12939 51.933 11.4081C52.1936 11.6506 52.2385 11.9201 52.0588 12.1177C51.8701 12.3243 51.6005 12.2884 51.322 12.0189C49.8036 10.5817 48.0066 9.68341 45.967 9.27918C45.8592 9.26122 45.7424 9.26122 45.6166 9.25223Z" fill="#050404"/>
      <path d="M33.1994 17.4535C33.5498 17.4625 33.6846 17.2648 33.7744 16.9504C34.7987 13.4562 37.018 11.0488 40.4233 9.73729C40.5221 9.70136 40.6299 9.67441 40.7288 9.64746C40.7018 9.8361 40.5311 9.8361 40.4143 9.89898C39.4439 10.411 38.5544 11.0308 37.7727 11.7943C36.7395 12.8004 35.9218 13.9682 35.3378 15.2976C34.5471 17.1032 34.2596 18.9716 34.4753 20.9388C34.637 22.4569 35.1042 23.8672 35.85 25.1876C36.8473 26.9483 38.231 28.3226 39.974 29.3377C40.2256 29.4814 40.5581 29.5353 40.7198 29.8227C38.0602 28.9604 36.0836 27.2627 34.7089 24.8553C34.3315 24.1995 34.044 23.4989 33.8373 22.7623C33.7475 22.4389 33.5768 22.2682 33.2263 22.3132C33.1904 21.855 33.0287 21.4149 33.0377 20.9568C33.3072 20.8759 33.424 20.6963 33.415 20.3998C33.3971 19.9507 33.3971 19.5105 33.415 19.0614C33.424 18.765 33.3162 18.5943 33.0377 18.5045C33.0467 18.1452 33.1185 17.8038 33.1994 17.4535Z" fill="#F18DAF"/>
      <path d="M33.0466 18.5045C33.3252 18.5854 33.433 18.765 33.424 19.0614C33.406 19.5106 33.406 19.9507 33.424 20.3999C33.433 20.6963 33.3252 20.867 33.0466 20.9568C32.6962 20.9299 32.5525 20.7322 32.5614 20.3909C32.5704 19.9507 32.5704 19.5196 32.5614 19.0794C32.5525 18.7381 32.6962 18.5315 33.0466 18.5045Z" fill="#050404"/>
      <path d="M40.7288 29.8138C40.567 29.5264 40.2346 29.4725 39.983 29.3287C38.2309 28.3137 36.8563 26.9393 35.8589 25.1787C35.1132 23.8582 34.646 22.4479 34.4842 20.9298C34.2776 18.9716 34.5651 17.0942 35.3468 15.2887C35.9308 13.9592 36.7484 12.7915 37.7817 11.7854C38.5634 11.0219 39.4529 10.402 40.4233 9.89003C40.5401 9.82715 40.7108 9.82715 40.7377 9.63851C40.8096 9.68343 40.8635 9.67444 40.8905 9.58462C42.2292 9.15344 43.6039 9.00972 45.0056 9.16243C43.8645 9.57563 42.7773 10.0787 41.798 10.8063C40.5401 11.7315 39.5338 12.8633 38.7431 14.2107C38.0243 15.4414 37.5481 16.7618 37.3594 18.1721C37.0988 20.1843 37.3235 22.1515 38.1321 24.0379C38.6982 25.3584 39.4888 26.5351 40.4952 27.5412C41.6812 28.7269 43.0738 29.6072 44.6642 30.1551C44.772 30.1911 44.8798 30.245 44.9966 30.2899C43.7747 30.4336 42.5707 30.3168 41.3847 30.0204C41.2139 29.9755 41.0522 29.9216 40.8815 29.8677C40.8545 29.7779 40.8006 29.7779 40.7288 29.8138ZM35.2659 19.5106C35.2479 20.7232 35.4187 21.8012 35.7511 22.8522C35.841 23.1306 36.0207 23.2654 36.3082 23.2025C36.5418 23.1486 36.6406 22.8791 36.5597 22.6006C36.2543 21.5856 36.1105 20.5526 36.1105 19.4926C36.1105 18.9626 36.2093 18.4416 36.2543 17.9116C36.2812 17.6422 36.1914 17.4266 35.9038 17.3906C35.6073 17.3547 35.4456 17.5254 35.4007 17.8218C35.3108 18.4147 35.239 19.0075 35.2659 19.5106ZM38.3298 13.1148C38.3298 12.9172 38.2579 12.7645 38.0782 12.7106C37.8895 12.6477 37.7008 12.6657 37.5661 12.8454C37.1977 13.3125 36.9012 13.8245 36.6137 14.3365C36.4609 14.615 36.5687 14.8216 36.8203 14.9563C37.0629 15.0821 37.2426 14.9653 37.3684 14.7407C37.62 14.3006 37.8715 13.8604 38.186 13.4562C38.2669 13.3484 38.3567 13.2406 38.3298 13.1148ZM36.1824 16.9595C36.3531 16.9774 36.4879 16.8876 36.5597 16.699C36.6316 16.5283 36.6945 16.3486 36.7484 16.169C36.8113 15.9175 36.7215 15.7109 36.4789 15.621C36.2363 15.5312 36.0296 15.639 35.9218 15.8726C35.841 16.0522 35.787 16.2498 35.7331 16.4385C35.6613 16.7259 35.8499 16.9505 36.1824 16.9595Z" fill="#F7BACF"/>
      <path d="M44.0532 23.1486C44.3497 23.1486 44.6462 23.1486 44.9427 23.1486C45.2033 23.1486 45.2751 23.2743 45.2033 23.5169C45.0595 24.0199 44.5923 24.3702 44.0352 24.3702C43.4782 24.3702 43.0199 24.0289 42.8672 23.5169C42.7953 23.2654 42.8852 23.1576 43.1277 23.1486C43.4332 23.1396 43.7387 23.1486 44.0532 23.1486ZM43.9993 23.5708C43.7747 23.5887 43.4692 23.5887 43.4602 23.8762C43.4512 24.1816 43.7657 24.1906 43.9993 24.1996C44.2509 24.2085 44.5743 24.1996 44.5833 23.8942C44.5923 23.5708 44.2598 23.5887 43.9993 23.5708Z" fill="#050404"/>
      <path d="M41.7171 22.8971C41.3128 22.9061 40.9803 22.5917 40.9713 22.1964C40.9623 21.8012 41.2858 21.4778 41.6811 21.4688C42.1034 21.4598 42.4089 21.7563 42.4179 22.1695C42.4359 22.5827 42.1304 22.8971 41.7171 22.8971Z" fill="#050404"/>
      <path d="M47.0991 22.1695C47.1081 22.6006 46.8296 22.8881 46.4073 22.8971C45.994 22.9061 45.6795 22.6096 45.6705 22.1964C45.6615 21.7832 45.967 21.4688 46.3713 21.4688C46.8026 21.4688 47.0991 21.7473 47.0991 22.1695Z" fill="#050404"/>
      <path d="M40.7288 29.8138C40.8006 29.7689 40.8545 29.7779 40.8815 29.8677C40.8276 29.8497 40.7827 29.8318 40.7288 29.8138Z" fill="#F18DAF"/>
      <path d="M40.8815 9.59357C40.8545 9.6834 40.8006 9.69238 40.7288 9.64746C40.7827 9.6295 40.8276 9.61153 40.8815 9.59357Z" fill="#F18DAF"/>
      <path d="M43.9993 23.5707C44.2599 23.5887 44.5923 23.5707 44.5833 23.8941C44.5743 24.2085 44.2419 24.2085 43.9993 24.1995C43.7657 24.1906 43.4512 24.1816 43.4602 23.8762C43.4692 23.5797 43.7747 23.5887 43.9993 23.5707Z" fill="#F7BACF"/>
    </g>
  </g>
  <defs>
    <clipPath id="clip0"></clipPath>
  </defs>
</svg>
