<svg width="54" height="37" viewBox="0 0 54 37" fill="none"
  xmlns="http://www.w3.org/2000/svg">
  <g opacity="0.7" clip-path="url(#clip0)">
    <path d="M28.8913 1.62819C28.7405 1.83457 28.9726 1.77724 29.0306 1.80018C30.8522 2.49959 32.5463 3.43978 34.0778 4.64368C35.8067 5.99664 37.1874 7.63625 38.3245 9.4937C39.566 11.5461 40.3318 13.7704 40.6567 16.1209C40.8423 17.4968 40.8539 18.8727 40.7147 20.2715C40.4943 22.5188 39.8793 24.64 38.835 26.635C37.1874 29.7652 34.8204 32.2188 31.6992 33.9731C30.7942 34.4891 29.8312 34.8674 28.8681 35.2687C28.8565 35.2687 28.8333 35.3031 28.8333 35.3031C28.8449 35.3375 28.8681 35.3605 28.8913 35.3948C28.5665 35.5324 28.2184 35.5095 27.8703 35.521C27.6962 35.4522 27.5106 35.3719 27.3365 35.3031C24.7491 34.4088 22.4749 32.9985 20.5372 31.0952C18.8896 29.4671 17.6017 27.5752 16.6851 25.454C15.3623 22.4156 14.991 19.2511 15.4203 16.0063C15.722 13.7475 16.4994 11.6149 17.6713 9.63129C18.9476 7.46426 20.5952 5.62974 22.6374 4.13919C24.2386 2.98115 26.0138 2.16708 27.8703 1.4906C28.2184 1.51353 28.5665 1.4906 28.8913 1.62819ZM26.3387 24.0208C25.8398 24.0208 25.3408 24.0093 24.8303 24.0208C24.4358 24.0323 24.285 24.2043 24.401 24.617C24.6447 25.4426 25.3873 25.9929 26.3039 25.9929C27.2089 25.9929 27.9747 25.4311 28.2068 24.617C28.3228 24.2272 28.1952 24.0208 27.7775 24.0208C27.3017 24.0093 26.8144 24.0208 26.3387 24.0208ZM22.5329 23.6195C23.2059 23.608 23.6932 23.115 23.6816 22.45C23.67 21.785 23.1711 21.3149 22.4865 21.3264C21.8368 21.3378 21.303 21.8653 21.3262 22.4959C21.3378 23.1265 21.8832 23.631 22.5329 23.6195ZM31.3047 22.4385C31.2931 21.7621 30.8174 21.3034 30.1212 21.3149C29.4483 21.3264 28.961 21.8309 28.9726 22.4844C28.9842 23.138 29.4947 23.6195 30.1677 23.608C30.8638 23.5966 31.3163 23.138 31.3047 22.4385Z" fill="#FBE3EB"/>
    <path d="M27.8703 35.5209C28.2183 35.498 28.5664 35.5324 28.8913 35.3948C31.9081 35.005 34.6116 33.8469 36.967 31.9665C41.7126 28.1714 43.9171 23.2182 43.5458 17.1986C43.3602 14.1487 42.3043 11.3626 40.5639 8.84009C40.4942 8.74836 40.4246 8.65664 40.3666 8.56491C40.0997 8.18654 40.0417 7.81964 40.4362 7.4986C40.7727 7.22342 41.1904 7.32661 41.5153 7.77377C43.3138 10.2504 44.4624 13.0022 44.8337 16.0291C45.5647 22.0716 43.8243 27.3344 39.4732 31.6455C29.5411 41.4831 12.4036 37.172 8.37735 23.8602C8.22651 23.3672 8.21491 22.9659 8.71384 22.6793C9.28238 22.599 9.56085 22.8742 9.71169 23.3901C10.0482 24.5711 10.5123 25.6948 11.1272 26.7611C13.3782 30.648 16.5922 33.3654 20.9201 34.7642C21.0013 34.7871 21.0826 34.8215 21.1754 34.8444C21.4422 34.9247 21.7207 35.0279 21.9876 35.0967C23.9253 35.5668 25.8862 35.7617 27.8703 35.5209Z" fill="#050404"/>
    <path d="M28.8913 1.6281C28.5665 1.49051 28.2184 1.51344 27.8703 1.50198C25.5845 1.24973 23.3567 1.49051 21.1754 2.18992C21.0942 2.21286 21.013 2.24725 20.9201 2.27018C20.7577 2.31605 20.5836 2.36191 20.4212 2.41924C14.875 4.52894 11.2549 8.3929 9.59568 14.0341C9.44484 14.5385 9.22439 14.8596 8.65584 14.8481C8.0641 14.5729 8.0873 14.1143 8.24974 13.5869C9.86255 8.18651 13.1926 4.18497 18.3443 1.78862C25.3873 -1.50205 33.5093 -0.160557 39.1947 5.11369C39.624 5.50353 39.6937 5.93923 39.4036 6.26027C39.0903 6.59277 38.661 6.53545 38.1969 6.09975C35.7255 3.78366 32.8015 2.33898 29.4715 1.68543C29.2858 1.65103 29.0886 1.65103 28.8913 1.6281Z" fill="#050404"/>
    <path d="M8.65571 14.8482C9.22425 14.8711 9.44471 14.5386 9.59554 14.0341C11.2664 8.40445 14.8865 4.52902 20.4211 2.41932C20.5835 2.36199 20.746 2.31613 20.92 2.27026C20.8852 2.56837 20.5951 2.56837 20.4095 2.67157C18.8315 3.4971 17.3811 4.49462 16.1048 5.72146C14.4224 7.34959 13.088 9.21851 12.1482 11.3626C10.8603 14.2749 10.3961 17.2904 10.7326 20.4435C10.9995 22.8857 11.7537 25.1559 12.9836 27.2885C14.608 30.1206 16.859 32.3335 19.7133 33.9616C20.131 34.2024 20.6647 34.2827 20.9316 34.7528C16.6037 33.3654 13.3781 30.6365 11.1387 26.7497C10.5238 25.6833 10.0481 24.5597 9.72318 23.3787C9.57234 22.8628 9.29387 22.5876 8.72532 22.6678C8.66731 21.934 8.40044 21.2232 8.42365 20.4779C8.86456 20.3403 9.05021 20.0651 9.0386 19.5836C9.0038 18.8612 9.0038 18.1503 9.0386 17.428C9.06181 16.9579 8.87616 16.6713 8.42365 16.5337C8.40044 15.9604 8.52808 15.3986 8.65571 14.8482Z" fill="#F18DAF"/>
    <path d="M8.40045 16.545C8.85297 16.6826 9.02701 16.9693 9.01541 17.4394C8.9806 18.1617 8.9806 18.8726 9.01541 19.5949C9.03861 20.065 8.85297 20.3517 8.40045 20.4893C7.83191 20.4434 7.59985 20.1223 7.59985 19.572C7.61146 18.8726 7.61146 18.1617 7.59985 17.4623C7.59985 16.9119 7.83191 16.5794 8.40045 16.545Z" fill="#050404"/>
    <path d="M1.93777 16.8431C2.16983 16.8775 2.30906 17.0151 2.35547 17.21C2.43669 17.5884 2.65715 17.8063 3.04004 17.8865C3.23729 17.9324 3.39974 18.0356 3.42294 18.2649C3.44615 18.5057 3.29531 18.6777 3.07485 18.735C2.69196 18.8382 2.43669 19.0331 2.35547 19.4459C2.32066 19.6408 2.15822 19.7669 1.92616 19.7669C1.69411 19.7669 1.54327 19.6408 1.49686 19.4459C1.41563 19.0331 1.16037 18.8267 0.777474 18.735C0.580224 18.6777 0.440989 18.5401 0.429386 18.3222C0.417783 18.0929 0.557018 17.9553 0.754268 17.9095C1.18358 17.8177 1.42724 17.5769 1.52006 17.1642C1.56647 16.9578 1.74052 16.8546 1.93777 16.8431Z" fill="#F18DAF"/>
    <path d="M53.9999 15.8228C53.9651 16.0636 53.791 16.1782 53.5706 16.2356C53.2457 16.3158 53.0252 16.4993 52.9556 16.8432C52.9092 17.0611 52.7816 17.2331 52.5263 17.2445C52.2479 17.256 52.097 17.0726 52.0506 16.8318C51.981 16.4878 51.7489 16.3273 51.4356 16.2356C51.2152 16.1782 51.0295 16.0521 51.0295 15.8113C51.0295 15.5361 51.2152 15.3986 51.4589 15.3412C51.8069 15.261 51.9926 15.0775 52.0622 14.7335C52.1086 14.5157 52.2362 14.3322 52.4799 14.3208C52.7236 14.3093 52.886 14.4698 52.9324 14.6877C53.0136 15.0775 53.2457 15.2724 53.617 15.3642C53.8607 15.4215 53.9883 15.5935 53.9999 15.8228Z" fill="#F18DAF"/>
    <path d="M5.75501 8.19803C5.75501 8.86305 5.22127 9.40194 4.55991 9.42487C3.93335 9.43633 3.3416 8.85158 3.33 8.22097C3.31839 7.56742 3.93335 6.94827 4.57151 6.9712C5.24448 6.99413 5.75501 7.52155 5.75501 8.19803ZM4.59471 8.66813C4.86158 8.6452 5.05883 8.49614 5.04723 8.1751C5.03562 7.88846 4.84998 7.72794 4.55991 7.72794C4.22342 7.71647 4.04938 7.92286 4.06098 8.22097C4.07258 8.47321 4.23502 8.66813 4.59471 8.66813Z" fill="#F18DAF"/>
    <path d="M48.3379 23.0004C48.3379 22.3239 48.86 21.8194 49.5446 21.8309C50.2408 21.8423 50.7513 22.3354 50.7513 23.0119C50.7629 23.6654 50.2175 24.2158 49.5562 24.2272C48.86 24.2387 48.3379 23.7227 48.3379 23.0004ZM50.0667 23.0119C49.9855 22.7252 49.8463 22.4959 49.5098 22.5303C49.1965 22.5647 49.0341 22.7596 49.0457 23.0806C49.0689 23.3902 49.2893 23.5278 49.5562 23.5278C49.8463 23.5163 50.0203 23.2985 50.0667 23.0119Z" fill="#F18DAF"/>
    <path d="M3.29529 14.6074C2.77316 14.5959 2.39027 14.1946 2.40187 13.6787C2.41347 13.1398 2.83118 12.7499 3.37651 12.7843C3.89865 12.8073 4.26994 13.22 4.24673 13.736C4.22353 14.252 3.81743 14.6189 3.29529 14.6074Z" fill="#F7BACF"/>
    <path d="M0.835543 10.8352C0.742719 10.8237 -0.0114704 10.0899 0.000132479 10.0096C0.0117354 9.92939 0.835543 9.19558 0.881954 9.24144C1.16042 9.49369 1.42729 9.76887 1.68256 10.0326C1.71736 10.067 0.90516 10.8352 0.835543 10.8352Z" fill="#F18DAF"/>
    <path d="M48.9295 14.9743C48.651 14.6189 48.2217 14.3093 48.2217 13.9882C48.2217 13.7016 48.6858 13.2086 48.9759 13.1971C49.2427 13.1856 49.7765 13.6443 49.7765 13.9195C49.7997 14.2061 49.3356 14.5157 48.9295 14.9743Z" fill="#F18DAF"/>
    <path d="M20.92 34.7527C20.6532 34.2941 20.1194 34.2024 19.7017 33.9616C16.8474 32.322 14.5965 30.1206 12.9721 27.2885C11.7537 25.1559 10.988 22.8971 10.7211 20.4435C10.3846 17.2904 10.8487 14.2749 12.1366 11.3626C13.0881 9.21849 14.4108 7.34958 16.0932 5.72144C17.3696 4.4946 18.8199 3.48562 20.3979 2.67155C20.5836 2.56836 20.8736 2.56836 20.9084 2.27025C21.0245 2.33904 21.1173 2.33904 21.1637 2.18999C23.3451 1.49058 25.5844 1.26126 27.8586 1.50204C26.0021 2.16705 24.2269 2.98112 22.6257 4.15063C20.5836 5.64118 18.9359 7.4757 17.6596 9.64273C16.4877 11.6263 15.7103 13.7475 15.4087 16.0177C14.9794 19.2625 15.3506 22.427 16.6734 25.4655C17.6016 27.5981 18.8779 29.4785 20.5255 31.1066C22.4632 33.0214 24.7374 34.4317 27.3249 35.3146C27.5105 35.3719 27.6845 35.4521 27.8586 35.5324C25.8745 35.7617 23.9136 35.5668 21.9759 35.0967C21.6974 35.0279 21.4306 34.9362 21.1637 34.8445C21.1289 34.6954 21.0361 34.6839 20.92 34.7527ZM12.0206 18.1618C11.9858 20.111 12.2643 21.8423 12.8096 23.5392C12.9604 23.9979 13.2505 24.2042 13.7262 24.101C14.0975 24.0208 14.2716 23.5851 14.1323 23.1265C13.6334 21.4983 13.4014 19.8243 13.4014 18.1274C13.4014 17.2675 13.5638 16.4305 13.6334 15.582C13.6682 15.1463 13.529 14.8023 13.0649 14.745C12.5892 14.6877 12.3223 14.9628 12.2411 15.4329C12.0902 16.3961 11.9742 17.3477 12.0206 18.1618ZM17.0215 7.85407C17.0215 7.53303 16.9054 7.29225 16.6154 7.20052C16.3021 7.09733 16.0004 7.13173 15.78 7.41837C15.1882 8.17511 14.7009 8.98918 14.2252 9.82618C13.9815 10.2733 14.1439 10.6173 14.5617 10.8237C14.9678 11.0186 15.2462 10.8466 15.4667 10.4797C15.8844 9.76885 16.2905 9.05798 16.7894 8.40443C16.917 8.23244 17.0563 8.06045 17.0215 7.85407ZM13.5174 14.0456C13.7959 14.08 14.0163 13.9309 14.1323 13.6328C14.2484 13.3462 14.3528 13.071 14.434 12.7729C14.5384 12.3716 14.3992 12.0391 14.0047 11.89C13.6102 11.7524 13.2737 11.9129 13.0997 12.2913C12.9721 12.5894 12.8792 12.899 12.798 13.2086C12.6704 13.6787 12.9721 14.0456 13.5174 14.0456Z" fill="#F7BACF"/>
    <path d="M26.3387 24.0207C26.826 24.0207 27.3017 24.0207 27.789 24.0207C28.2067 24.0207 28.3344 24.2271 28.2183 24.6169C27.9863 25.431 27.2205 25.9928 26.3155 25.9928C25.4104 25.9928 24.6678 25.4425 24.4126 24.6169C24.2849 24.2042 24.4358 24.0322 24.8419 24.0207C25.3292 24.0093 25.8281 24.0207 26.3387 24.0207ZM26.2574 24.6972C25.8977 24.7316 25.3988 24.7201 25.3756 25.2017C25.364 25.6947 25.8745 25.7062 26.2458 25.7177C26.6519 25.7291 27.1857 25.7291 27.1973 25.2246C27.2205 24.6972 26.6867 24.7201 26.2574 24.6972Z" fill="#050404"/>
    <path d="M22.5329 23.6194C21.8716 23.6309 21.3378 23.1378 21.3146 22.4958C21.303 21.8651 21.8252 21.3377 22.4749 21.3263C23.1595 21.3148 23.6584 21.7849 23.67 22.4499C23.7048 23.1035 23.2175 23.6079 22.5329 23.6194Z" fill="#050404"/>
    <path d="M31.3047 22.4385C31.3163 23.1264 30.8638 23.5965 30.1792 23.608C29.5062 23.6194 28.9957 23.1379 28.9841 22.4843C28.9725 21.8193 29.4598 21.3148 30.1328 21.3148C30.8174 21.3148 31.2931 21.762 31.3047 22.4385Z" fill="#050404"/>
    <path d="M20.9202 34.7527C21.0362 34.6839 21.129 34.6839 21.1754 34.8329C21.0942 34.81 21.013 34.7871 20.9202 34.7527Z" fill="#F18DAF"/>
    <path d="M21.1754 2.18994C21.129 2.33899 21.0362 2.33899 20.9202 2.2702C21.013 2.24727 21.0942 2.21287 21.1754 2.18994Z" fill="#F18DAF"/>
    <path d="M4.59483 8.66803C4.23514 8.66803 4.06109 8.47312 4.06109 8.2094C4.04949 7.92276 4.22353 7.70491 4.56002 7.71637C4.85009 7.72784 5.03574 7.8769 5.04734 8.16354C5.05894 8.49605 4.86169 8.6451 4.59483 8.66803Z" fill="#FEFEFE"/>
    <path d="M50.0666 23.0117C50.0202 23.2984 49.8577 23.5277 49.556 23.5277C49.2892 23.5392 49.0687 23.3901 49.0455 23.0805C49.0223 22.7595 49.1964 22.576 49.5096 22.5302C49.8461 22.4958 49.9853 22.7251 50.0666 23.0117Z" fill="#FEFEFE"/>
    <path d="M26.2575 24.6973C26.6868 24.7202 27.2205 24.7087 27.2089 25.2132C27.1973 25.7177 26.6636 25.7177 26.2575 25.7063C25.8746 25.6948 25.364 25.6833 25.3872 25.1903C25.3872 24.7202 25.8978 24.7317 26.2575 24.6973Z" fill="#F7BACF"/>
  </g>
  <defs>
    <clipPath id="clip0">
      <rect width="54" height="37" fill="white"/>
    </clipPath>
  </defs>
</svg>
